<svg width="14" height="8" viewBox="0 0 14 8" fill="none" xmlns="http://www.w3.org/2000/svg">
<path d="M0.839966 0.953016C0.861966 0.900016 0.881959 0.84602 0.907959 0.79402C0.955521 0.687002 1.03368 0.59644 1.13263 0.533796C1.23158 0.471153 1.34685 0.439214 1.46393 0.441999H13.088C13.1722 0.438005 13.2567 0.443048 13.34 0.457014C13.4401 0.479952 13.533 0.527345 13.6104 0.594953C13.6877 0.662562 13.7472 0.748291 13.7833 0.844465C13.8195 0.94064 13.8312 1.04427 13.8176 1.1461C13.8039 1.24793 13.7652 1.34479 13.705 1.42802C13.6663 1.47824 13.6239 1.52538 13.5779 1.56901L7.83997 7.308C7.78021 7.38597 7.70327 7.44915 7.61517 7.49263C7.52708 7.53611 7.43015 7.55873 7.33191 7.55873C7.23367 7.55873 7.1368 7.53611 7.04871 7.49263C6.96061 7.44915 6.88367 7.38597 6.82391 7.308C4.93191 5.416 3.03958 3.52468 1.14691 1.63402C1.00673 1.51204 0.899762 1.35654 0.835938 1.18202L0.839966 0.953016Z" fill="#7B7B7B"/>
</svg>
