<svg width="16" height="14" viewBox="0 0 16 14" fill="none" xmlns="http://www.w3.org/2000/svg">
<path d="M15.7 0.981008C15.7001 1.10987 15.6748 1.2375 15.6256 1.35658C15.5763 1.47566 15.5041 1.58385 15.413 1.67497C15.3218 1.76609 15.2136 1.83835 15.0946 1.8876C14.9755 1.93686 14.8479 1.96214 14.719 1.96201H0.981C0.852173 1.96201 0.724608 1.93663 0.605588 1.88733C0.486567 1.83803 0.378423 1.76577 0.287328 1.67468C0.196234 1.58359 0.123974 1.47544 0.0746742 1.35642C0.0253743 1.2374 0 1.10983 0 0.981008C0 0.852181 0.0253743 0.724616 0.0746742 0.605596C0.123974 0.486575 0.196234 0.378431 0.287328 0.287336C0.378423 0.196242 0.486567 0.123982 0.605588 0.0746823C0.724608 0.0253824 0.852173 8.16344e-06 0.981 8.16615e-06H14.716C14.8451 -0.00051891 14.9731 0.0244736 15.0925 0.0735498C15.2119 0.122626 15.3205 0.194818 15.4119 0.285978C15.5033 0.377138 15.5759 0.485469 15.6253 0.604745C15.6747 0.724021 15.7001 0.851891 15.7 0.981008ZM9.483 11.773H6.213C6.08417 11.773 5.95661 11.7984 5.83759 11.8477C5.71857 11.897 5.61042 11.9692 5.51933 12.0603C5.42823 12.1514 5.35597 12.2596 5.30667 12.3786C5.25737 12.4976 5.232 12.6252 5.232 12.754C5.232 12.8828 5.25737 13.0104 5.30667 13.1294C5.35597 13.2484 5.42823 13.3566 5.51933 13.4477C5.61042 13.5388 5.71857 13.611 5.83759 13.6603C5.95661 13.7096 6.08417 13.735 6.213 13.735H9.483C9.74318 13.735 9.9927 13.6317 10.1767 13.4477C10.3606 13.2637 10.464 13.0142 10.464 12.754C10.464 12.4938 10.3606 12.2443 10.1767 12.0603C9.9927 11.8764 9.74318 11.773 9.483 11.773ZM12.1 5.88601H3.6C3.33982 5.88601 3.0903 5.98936 2.90633 6.17334C2.72235 6.35731 2.619 6.60683 2.619 6.86701C2.619 7.12718 2.72235 7.37671 2.90633 7.56068C3.0903 7.74465 3.33982 7.84801 3.6 7.84801H12.1C12.3602 7.84801 12.6097 7.74465 12.7937 7.56068C12.9776 7.37671 13.081 7.12718 13.081 6.86701C13.081 6.60683 12.9776 6.35731 12.7937 6.17334C12.6097 5.98936 12.3602 5.88601 12.1 5.88601Z" fill="white"/>
</svg>
