<svg width="442" height="416" viewBox="0 0 442 416" fill="none" xmlns="http://www.w3.org/2000/svg">
<path d="M46.3644 263.985C45.5165 264.21 44.6313 264.257 43.7644 264.123C42.8977 263.994 42.067 263.688 41.3244 263.223C40.5796 262.759 39.9389 262.146 39.4424 261.423C38.9419 260.702 38.596 259.884 38.4264 259.023C32.5302 229.577 33.5325 199.166 41.3548 170.172C49.1771 141.178 63.6068 114.39 83.5134 91.9049C84.0929 91.2474 84.8021 90.7166 85.5964 90.3459C86.389 89.9719 87.2503 89.7656 88.1264 89.7399C89.0024 89.7109 89.8749 89.8631 90.6894 90.1869C91.5051 90.5074 92.2459 90.9929 92.8654 91.6129L129.384 128.013C129.953 128.577 130.41 129.242 130.731 129.975C131.055 130.707 131.238 131.493 131.27 132.293C131.306 133.093 131.19 133.892 130.929 134.649C130.671 135.407 130.273 136.109 129.754 136.719C117.399 151.316 108.412 168.456 103.431 186.92C98.4493 205.384 97.5967 224.719 100.933 243.55C101.074 244.338 101.065 245.145 100.907 245.93C100.752 246.715 100.45 247.464 100.017 248.138C99.5874 248.814 99.0338 249.404 98.3854 249.875C97.7388 250.347 97.009 250.693 96.2344 250.895L46.3644 263.985Z" fill="#FFC400"/>
<path d="M233.82 33.093C233.818 32.2165 233.997 31.349 234.346 30.545C234.691 29.74 235.199 29.0151 235.837 28.416C236.474 27.8132 237.228 27.3485 238.052 27.051C238.876 26.7501 239.752 26.6221 240.627 26.675C243.843 26.8663 247.051 27.1363 250.252 27.485C253.454 27.8337 256.645 28.263 259.825 28.773C263.006 29.281 266.173 29.8677 269.325 30.533C272.478 31.1983 275.611 31.9417 278.725 32.763C281.839 33.5843 284.931 34.4823 288.001 35.457C291.071 36.4317 294.115 37.482 297.132 38.608C300.15 39.7333 303.137 40.9333 306.095 42.208C309.053 43.4827 311.978 44.8293 314.868 46.248C317.759 47.6673 320.613 49.158 323.43 50.72C326.248 52.282 329.024 53.9123 331.759 55.611C334.493 57.3103 337.185 59.077 339.835 60.911C342.486 62.745 345.086 64.6427 347.635 66.604C350.189 68.566 352.693 70.5903 355.146 72.677C357.6 74.7637 360 76.9097 362.346 79.115C364.693 81.321 366.984 83.5837 369.218 85.903C371.453 88.2223 373.628 90.596 375.744 93.024C377.861 95.452 379.916 97.9307 381.909 100.46C383.903 102.989 385.832 105.567 387.697 108.193C389.564 110.818 391.364 113.489 393.097 116.204C394.831 118.919 396.495 121.676 398.09 124.473C399.686 127.273 401.212 130.109 402.666 132.98C404.121 135.851 405.503 138.759 406.813 141.703C408.123 144.645 409.36 147.618 410.523 150.621C411.687 153.624 412.774 156.655 413.785 159.713C414.798 162.771 415.734 165.852 416.593 168.955C417.453 172.058 418.234 175.182 418.937 178.325C419.641 181.468 420.267 184.626 420.814 187.8C421.362 190.974 421.828 194.16 422.214 197.357C422.603 200.557 422.912 203.762 423.141 206.972C423.371 210.182 423.521 213.398 423.591 216.621C423.658 219.841 423.648 223.061 423.56 226.28C423.473 229.499 423.303 232.715 423.049 235.926C422.981 236.8 422.735 237.65 422.327 238.426C421.918 239.201 421.355 239.884 420.673 240.434C419.99 240.984 419.203 241.388 418.358 241.623C417.514 241.857 416.631 241.916 415.762 241.797L364.681 234.767C363.082 234.547 361.623 233.733 360.596 232.487C359.569 231.241 359.049 229.654 359.138 228.042C359.37 223.855 359.4 219.666 359.227 215.477C359.055 211.288 358.68 207.116 358.104 202.962C357.528 198.808 356.754 194.692 355.78 190.613C354.807 186.534 353.64 182.512 352.28 178.546C350.918 174.58 349.368 170.689 347.63 166.873C345.892 163.057 343.975 159.332 341.877 155.698C339.779 152.067 337.513 148.545 335.077 145.134C332.642 141.723 330.045 138.436 327.286 135.275C324.528 132.114 321.625 129.094 318.577 126.216C315.53 123.338 312.35 120.61 309.037 118.032C305.728 115.459 302.301 113.051 298.757 110.808C295.213 108.565 291.57 106.499 287.827 104.608C284.084 102.718 280.258 101.013 276.35 99.492C272.442 97.9713 268.471 96.6433 264.437 95.508C260.401 94.3747 256.319 93.4353 252.191 92.69C248.064 91.9447 243.909 91.403 239.727 91.065C238.928 91.0019 238.148 90.7885 237.427 90.436C236.709 90.0863 236.063 89.6046 235.522 89.016C234.979 88.4282 234.551 87.7432 234.261 86.997C233.969 86.2519 233.819 85.4584 233.82 84.658V33.093Z" fill="#FFFF00"/>
<path d="M204.48 407.01C204.387 407.882 204.117 408.725 203.686 409.488C203.255 410.251 202.672 410.918 201.974 411.448C201.276 411.978 200.477 412.359 199.626 412.569C198.775 412.779 197.89 412.812 197.025 412.667C192.671 411.939 188.347 411.063 184.052 410.039C179.758 409.015 175.503 407.848 171.288 406.539C167.074 405.226 162.907 403.771 158.788 402.175C154.67 400.579 150.613 398.846 146.618 396.975C142.618 395.102 138.689 393.096 134.83 390.955C130.972 388.814 127.188 386.545 123.479 384.148C119.773 381.748 116.152 379.226 112.617 376.583C109.083 373.94 105.642 371.178 102.295 368.298C98.9485 365.419 95.7035 362.429 92.5602 359.33C89.4168 356.231 86.3835 353.027 83.4602 349.72C80.5348 346.413 77.7255 343.011 75.0322 339.513C72.3388 336.015 69.7679 332.43 67.3192 328.757C64.8692 325.084 62.5475 321.332 60.3542 317.501C58.1608 313.67 56.0995 309.77 54.1702 305.801C52.2428 301.83 50.4522 297.796 48.7982 293.701C47.1442 289.606 45.6315 285.461 44.2602 281.267C43.9865 280.434 43.8875 279.554 43.9692 278.681C44.0476 277.808 44.3053 276.961 44.7262 276.192C45.1432 275.417 45.7159 274.737 46.4082 274.194C47.0975 273.653 47.891 273.259 48.7392 273.038L98.6082 259.945C99.382 259.74 100.187 259.684 100.982 259.777C101.778 259.868 102.549 260.108 103.255 260.484C103.963 260.858 104.594 261.362 105.115 261.97C105.639 262.576 106.043 263.275 106.308 264.031C108.189 269.379 110.417 274.598 112.978 279.655C115.538 284.712 118.427 289.597 121.624 294.277C124.821 298.958 128.321 303.425 132.101 307.649C135.88 311.874 139.932 315.847 144.229 319.543C148.526 323.24 153.06 326.652 157.802 329.757C162.544 332.863 167.483 335.656 172.589 338.117C177.695 340.579 182.956 342.705 188.339 344.481C193.722 346.257 199.215 347.68 204.783 348.74C206.369 349.042 207.783 349.93 208.745 351.227C209.706 352.524 210.145 354.135 209.973 355.74L204.48 407.01Z" fill="#FF72F6"/>
<path d="M99.4768 84.982C98.8547 84.3644 98.3668 83.625 98.0438 82.81C97.7173 81.9965 97.5624 81.1242 97.5888 80.248C97.6122 79.3717 97.8165 78.5096 98.1888 77.716C98.5556 76.9209 99.0826 76.2101 99.7368 75.628C112.105 64.5942 125.839 55.1934 140.601 47.656C141.38 47.2554 142.234 47.0201 143.109 46.965C143.983 46.9061 144.861 47.0287 145.686 47.325C146.512 47.6175 147.269 48.0778 147.909 48.677C148.552 49.2724 149.064 49.9941 149.415 50.797L170.137 98.014C170.46 98.7464 170.642 99.5331 170.674 100.333C170.708 101.133 170.591 101.932 170.33 102.688C170.071 103.445 169.672 104.147 169.153 104.757C168.636 105.369 168.009 105.878 167.304 106.257C159.246 110.602 151.671 115.786 144.704 121.724C144.095 122.244 143.394 122.645 142.637 122.905C141.881 123.168 141.082 123.287 140.282 123.254C139.482 123.224 138.695 123.043 137.962 122.722C137.228 122.403 136.56 121.949 135.994 121.383L99.4768 84.982Z" fill="#00FF33"/>
<path d="M414.49 251.068C415.358 251.187 416.193 251.482 416.943 251.936C417.693 252.39 418.342 252.992 418.851 253.706C419.359 254.419 419.717 255.23 419.9 256.087C420.084 256.944 420.091 257.829 419.92 258.689C418.798 264.347 417.427 269.944 415.807 275.48C414.187 281.016 412.323 286.469 410.216 291.839C408.112 297.209 405.772 302.476 403.196 307.639C400.62 312.802 397.822 317.84 394.802 322.751C391.78 327.664 388.546 332.433 385.102 337.058C381.657 341.683 378.01 346.145 374.162 350.446C370.318 354.747 366.291 358.868 362.081 362.811C357.871 366.754 353.493 370.502 348.949 374.055C344.405 377.608 339.712 380.953 334.871 384.088C330.029 387.223 325.058 390.138 319.958 392.831C314.857 395.526 309.647 397.987 304.327 400.216C299.007 402.445 293.598 404.435 288.102 406.186C282.605 407.935 277.041 409.435 271.411 410.686C265.78 411.937 260.105 412.937 254.386 413.686C248.666 414.435 242.925 414.929 237.162 415.166C231.398 415.403 225.636 415.385 219.875 415.111C218.999 415.07 218.141 414.849 217.355 414.463C216.566 414.08 215.866 413.537 215.298 412.87C214.726 412.205 214.298 411.43 214.04 410.592C213.778 409.755 213.692 408.873 213.788 408.002L219.282 356.733C219.454 355.127 220.224 353.645 221.438 352.581C222.653 351.517 224.223 350.949 225.838 350.99C229.576 351.085 233.312 351.018 237.046 350.79C240.779 350.562 244.496 350.175 248.196 349.628C251.896 349.081 255.565 348.375 259.205 347.511C262.844 346.647 266.439 345.628 269.99 344.455C273.541 343.282 277.035 341.958 280.473 340.483C283.91 339.008 287.277 337.389 290.573 335.624C293.875 333.865 297.093 331.965 300.227 329.923C303.36 327.881 306.4 325.708 309.347 323.404C312.293 321.1 315.135 318.674 317.872 316.125C320.608 313.576 323.231 310.915 325.74 308.14C328.248 305.365 330.632 302.488 332.892 299.507C335.152 296.526 337.279 293.454 339.275 290.291C341.269 287.128 343.125 283.884 344.841 280.56C346.557 277.236 348.124 273.845 349.544 270.386C350.967 266.927 352.239 263.414 353.36 259.845C354.48 256.276 355.447 252.666 356.26 249.015C356.609 247.439 357.539 246.051 358.865 245.129C360.19 244.207 361.814 243.817 363.414 244.037L414.49 251.068Z" fill="#00B9FF"/>
<path d="M157.988 47.036C157.633 46.234 157.449 45.3676 157.446 44.491C157.438 43.6145 157.612 42.746 157.957 41.94C158.297 41.1323 158.801 40.4037 159.437 39.8C160.069 39.193 160.821 38.7238 161.644 38.422C167.03 36.4286 172.495 34.677 178.037 33.167C178.883 32.935 179.768 32.8802 180.637 33.006C181.505 33.1278 182.338 33.4277 183.085 33.887C183.832 34.343 184.478 34.9486 184.981 35.666C185.487 36.3817 185.841 37.1943 186.019 38.053L196.604 88.517C196.769 89.3002 196.786 90.1076 196.653 90.897C196.522 91.6869 196.244 92.4451 195.833 93.132C195.423 93.8201 194.888 94.4249 194.256 94.915C193.624 95.407 192.906 95.7758 192.139 96.002C190.31 96.544 188.494 97.126 186.691 97.748C185.934 98.0102 185.135 98.1276 184.336 98.094C183.536 98.0632 182.748 97.882 182.016 97.56C181.282 97.2401 180.615 96.7848 180.05 96.218C179.482 95.6531 179.027 94.9865 178.707 94.253L157.988 47.036Z" fill="#DEDEDE"/>
<path d="M195.181 36.132C195 35.2751 194.997 34.39 195.173 33.532C195.347 32.6728 195.695 31.8585 196.197 31.14C196.696 30.4199 197.339 29.8108 198.085 29.351C198.829 28.8855 199.66 28.579 200.528 28.451C206.21 27.607 211.917 27.015 217.65 26.675C218.525 26.6221 219.402 26.7501 220.225 27.051C221.051 27.348 221.807 27.8128 222.444 28.416C223.084 29.0152 223.592 29.7405 223.937 30.546C224.286 31.35 224.465 32.2175 224.463 33.094V84.656C224.464 85.4564 224.315 86.2499 224.022 86.995C223.732 87.7422 223.303 88.4278 222.758 89.016C222.215 89.6051 221.566 90.0865 220.844 90.435C220.124 90.7875 219.344 91.0009 218.544 91.064C216.643 91.2193 214.746 91.416 212.854 91.654C212.06 91.7553 211.254 91.7061 210.478 91.509C209.702 91.3143 208.969 90.975 208.318 90.509C207.666 90.0453 207.106 89.4628 206.669 88.792C206.23 88.1224 205.921 87.376 205.758 86.592L195.181 36.132Z" fill="#FF0000"/>
<path d="M411.437 98.092C411.483 96.8793 411.879 95.9443 412.627 95.287C413.375 94.6297 414.39 94.301 415.67 94.301C416.52 94.301 417.246 94.4483 417.846 94.743C418.458 95.0377 418.917 95.44 419.223 95.95C419.541 96.46 419.699 97.0323 419.699 97.667C419.699 98.415 419.512 99.027 419.138 99.503C418.764 99.9677 418.328 100.285 417.829 100.455V100.523C418.475 100.738 418.985 101.095 419.359 101.594C419.733 102.093 419.92 102.733 419.92 103.515C419.92 104.218 419.756 104.841 419.427 105.385C419.11 105.918 418.64 106.337 418.016 106.643C417.404 106.949 416.673 107.102 415.823 107.102C414.463 107.102 413.375 106.768 412.559 106.099C411.755 105.43 411.33 104.422 411.284 103.073H414.106C414.118 103.572 414.259 103.968 414.531 104.263C414.803 104.546 415.2 104.688 415.721 104.688C416.163 104.688 416.503 104.563 416.741 104.314C416.991 104.053 417.115 103.713 417.115 103.294C417.115 102.75 416.94 102.359 416.588 102.121C416.248 101.872 415.699 101.747 414.939 101.747H414.395V99.384H414.939C415.517 99.384 415.982 99.2877 416.333 99.095C416.696 98.891 416.877 98.534 416.877 98.024C416.877 97.616 416.764 97.2987 416.537 97.072C416.311 96.8453 415.999 96.732 415.602 96.732C415.172 96.732 414.849 96.8623 414.633 97.123C414.429 97.3837 414.31 97.7067 414.276 98.092H411.437ZM421.322 97.293V94.59H426.031V107H423.005V97.293H421.322ZM427.782 97.718C427.782 96.8 428.043 96.0917 428.564 95.593C429.097 95.0943 429.782 94.845 430.621 94.845C431.46 94.845 432.14 95.0943 432.661 95.593C433.182 96.0917 433.443 96.8 433.443 97.718C433.443 98.636 433.182 99.3443 432.661 99.843C432.14 100.342 431.46 100.591 430.621 100.591C429.782 100.591 429.097 100.342 428.564 99.843C428.043 99.3443 427.782 98.636 427.782 97.718ZM439.325 95.032L432.78 107H429.975L436.52 95.032H439.325ZM430.604 96.545C430.06 96.545 429.788 96.936 429.788 97.718C429.788 98.4887 430.06 98.874 430.604 98.874C430.865 98.874 431.069 98.7777 431.216 98.585C431.363 98.3923 431.437 98.1033 431.437 97.718C431.437 96.936 431.159 96.545 430.604 96.545ZM435.874 104.314C435.874 103.396 436.135 102.688 436.656 102.189C437.177 101.69 437.857 101.441 438.696 101.441C439.535 101.441 440.215 101.69 440.736 102.189C441.257 102.688 441.518 103.396 441.518 104.314C441.518 105.232 441.257 105.94 440.736 106.439C440.215 106.938 439.535 107.187 438.696 107.187C437.857 107.187 437.177 106.938 436.656 106.439C436.135 105.94 435.874 105.232 435.874 104.314ZM438.679 103.141C438.418 103.141 438.214 103.237 438.067 103.43C437.931 103.623 437.863 103.917 437.863 104.314C437.863 105.085 438.135 105.47 438.679 105.47C438.94 105.47 439.144 105.374 439.291 105.181C439.438 104.988 439.512 104.699 439.512 104.314C439.512 103.929 439.438 103.64 439.291 103.447C439.144 103.243 438.94 103.141 438.679 103.141Z" fill="black"/>
<path d="M362.171 394.671C362.556 394.365 362.732 394.223 362.698 394.246C363.808 393.328 364.681 392.574 365.316 391.985C365.962 391.396 366.506 390.778 366.948 390.132C367.39 389.486 367.611 388.857 367.611 388.245C367.611 387.78 367.503 387.418 367.288 387.157C367.072 386.896 366.749 386.766 366.319 386.766C365.888 386.766 365.548 386.93 365.299 387.259C365.061 387.576 364.942 388.03 364.942 388.619H362.137C362.159 387.656 362.363 386.851 362.749 386.205C363.145 385.559 363.661 385.083 364.296 384.777C364.942 384.471 365.656 384.318 366.438 384.318C367.786 384.318 368.801 384.664 369.481 385.355C370.172 386.046 370.518 386.947 370.518 388.058C370.518 389.271 370.104 390.398 369.277 391.441C368.449 392.472 367.395 393.481 366.115 394.467H370.705V396.83H362.171V394.671ZM375.113 393.362C375.283 394.257 375.804 394.705 376.677 394.705C377.277 394.705 377.702 394.439 377.952 393.906C378.201 393.373 378.326 392.506 378.326 391.305C378.076 391.656 377.736 391.928 377.306 392.121C376.875 392.314 376.393 392.41 375.861 392.41C375.135 392.41 374.489 392.263 373.923 391.968C373.356 391.662 372.908 391.214 372.58 390.625C372.262 390.024 372.104 389.299 372.104 388.449C372.104 387.61 372.274 386.879 372.614 386.256C372.965 385.633 373.458 385.151 374.093 384.811C374.739 384.471 375.498 384.301 376.371 384.301C378.048 384.301 379.221 384.822 379.89 385.865C380.558 386.908 380.893 388.443 380.893 390.472C380.893 391.945 380.757 393.164 380.485 394.127C380.224 395.079 379.776 395.804 379.142 396.303C378.518 396.802 377.663 397.051 376.575 397.051C375.713 397.051 374.977 396.881 374.365 396.541C373.764 396.201 373.299 395.753 372.971 395.198C372.653 394.643 372.472 394.031 372.427 393.362H375.113ZM376.524 390.115C377 390.115 377.379 389.973 377.663 389.69C377.946 389.395 378.088 388.999 378.088 388.5C378.088 387.956 377.94 387.537 377.646 387.242C377.351 386.947 376.954 386.8 376.456 386.8C375.957 386.8 375.56 386.953 375.266 387.259C374.982 387.554 374.841 387.962 374.841 388.483C374.841 388.97 374.982 389.367 375.266 389.673C375.56 389.968 375.98 390.115 376.524 390.115ZM382.206 387.718C382.206 386.8 382.466 386.092 382.988 385.593C383.52 385.094 384.206 384.845 385.045 384.845C385.883 384.845 386.563 385.094 387.085 385.593C387.606 386.092 387.867 386.8 387.867 387.718C387.867 388.636 387.606 389.344 387.085 389.843C386.563 390.342 385.883 390.591 385.045 390.591C384.206 390.591 383.52 390.342 382.988 389.843C382.466 389.344 382.206 388.636 382.206 387.718ZM393.749 385.032L387.204 397H384.399L390.944 385.032H393.749ZM385.028 386.545C384.484 386.545 384.212 386.936 384.212 387.718C384.212 388.489 384.484 388.874 385.028 388.874C385.288 388.874 385.492 388.778 385.64 388.585C385.787 388.392 385.861 388.103 385.861 387.718C385.861 386.936 385.583 386.545 385.028 386.545ZM390.298 394.314C390.298 393.396 390.558 392.688 391.08 392.189C391.601 391.69 392.281 391.441 393.12 391.441C393.958 391.441 394.638 391.69 395.16 392.189C395.681 392.688 395.942 393.396 395.942 394.314C395.942 395.232 395.681 395.94 395.16 396.439C394.638 396.938 393.958 397.187 393.12 397.187C392.281 397.187 391.601 396.938 391.08 396.439C390.558 395.94 390.298 395.232 390.298 394.314ZM393.103 393.141C392.842 393.141 392.638 393.237 392.491 393.43C392.355 393.623 392.287 393.917 392.287 394.314C392.287 395.085 392.559 395.47 393.103 395.47C393.363 395.47 393.567 395.374 393.715 395.181C393.862 394.988 393.936 394.699 393.936 394.314C393.936 393.929 393.862 393.64 393.715 393.447C393.567 393.243 393.363 393.141 393.103 393.141Z" fill="black"/>
<path d="M52.9746 373.293V370.59H57.6836V383H54.6576V373.293H52.9746ZM59.7402 380.79V378.444L65.1122 370.76H68.3592V378.274H69.7532V380.79H68.3592V383H65.4522V380.79H59.7402ZM65.6562 373.956L62.8002 378.274H65.6562V373.956ZM70.9391 373.718C70.9391 372.8 71.1998 372.092 71.7211 371.593C72.2538 371.094 72.9394 370.845 73.7781 370.845C74.6168 370.845 75.2968 371.094 75.8181 371.593C76.3394 372.092 76.6001 372.8 76.6001 373.718C76.6001 374.636 76.3394 375.344 75.8181 375.843C75.2968 376.342 74.6168 376.591 73.7781 376.591C72.9394 376.591 72.2538 376.342 71.7211 375.843C71.1998 375.344 70.9391 374.636 70.9391 373.718ZM82.4821 371.032L75.9371 383H73.1321L79.6771 371.032H82.4821ZM73.7611 372.545C73.2171 372.545 72.9451 372.936 72.9451 373.718C72.9451 374.489 73.2171 374.874 73.7611 374.874C74.0218 374.874 74.2258 374.778 74.3731 374.585C74.5204 374.392 74.5941 374.103 74.5941 373.718C74.5941 372.936 74.3164 372.545 73.7611 372.545ZM79.0311 380.314C79.0311 379.396 79.2918 378.688 79.8131 378.189C80.3344 377.69 81.0144 377.441 81.8531 377.441C82.6918 377.441 83.3718 377.69 83.8931 378.189C84.4144 378.688 84.6751 379.396 84.6751 380.314C84.6751 381.232 84.4144 381.94 83.8931 382.439C83.3718 382.938 82.6918 383.187 81.8531 383.187C81.0144 383.187 80.3344 382.938 79.8131 382.439C79.2918 381.94 79.0311 381.232 79.0311 380.314ZM81.8361 379.141C81.5754 379.141 81.3714 379.237 81.2241 379.43C81.0881 379.623 81.0201 379.917 81.0201 380.314C81.0201 381.085 81.2921 381.47 81.8361 381.47C82.0968 381.47 82.3008 381.374 82.4481 381.181C82.5954 380.988 82.6691 380.699 82.6691 380.314C82.6691 379.929 82.5954 379.64 82.4481 379.447C82.3008 379.243 82.0968 379.141 81.8361 379.141Z" fill="black"/>
<path d="M0.330094 162.293V159.59H5.03909V172H2.01309V162.293H0.330094ZM13.1647 162.939C13.074 162.52 12.9154 162.208 12.6887 162.004C12.462 161.789 12.139 161.681 11.7197 161.681C11.0737 161.681 10.609 161.964 10.3257 162.531C10.0424 163.086 9.89503 163.97 9.8837 165.183C10.133 164.786 10.49 164.475 10.9547 164.248C11.4307 164.021 11.952 163.908 12.5187 163.908C13.6294 163.908 14.519 164.259 15.1877 164.962C15.8677 165.665 16.2077 166.645 16.2077 167.903C16.2077 168.73 16.0377 169.456 15.6977 170.079C15.369 170.702 14.8817 171.19 14.2357 171.541C13.601 171.892 12.8474 172.068 11.9747 172.068C10.2294 172.068 9.0167 171.524 8.3367 170.436C7.6567 169.337 7.3167 167.761 7.3167 165.71C7.3167 163.557 7.6737 161.959 8.3877 160.916C9.11303 159.862 10.269 159.335 11.8557 159.335C12.7057 159.335 13.4197 159.505 13.9977 159.845C14.587 160.174 15.029 160.61 15.3237 161.154C15.6297 161.698 15.811 162.293 15.8677 162.939H13.1647ZM11.8217 166.203C11.3344 166.203 10.9264 166.35 10.5977 166.645C10.2804 166.928 10.1217 167.336 10.1217 167.869C10.1217 168.413 10.269 168.838 10.5637 169.144C10.8697 169.45 11.3004 169.603 11.8557 169.603C12.3544 169.603 12.7454 169.456 13.0287 169.161C13.3234 168.855 13.4707 168.441 13.4707 167.92C13.4707 167.387 13.329 166.968 13.0457 166.662C12.7624 166.356 12.3544 166.203 11.8217 166.203ZM17.6139 162.718C17.6139 161.8 17.8746 161.092 18.3959 160.593C18.9286 160.094 19.6142 159.845 20.4529 159.845C21.2916 159.845 21.9716 160.094 22.4929 160.593C23.0142 161.092 23.2749 161.8 23.2749 162.718C23.2749 163.636 23.0142 164.344 22.4929 164.843C21.9716 165.342 21.2916 165.591 20.4529 165.591C19.6142 165.591 18.9286 165.342 18.3959 164.843C17.8746 164.344 17.6139 163.636 17.6139 162.718ZM29.1569 160.032L22.6119 172H19.8069L26.3519 160.032H29.1569ZM20.4359 161.545C19.8919 161.545 19.6199 161.936 19.6199 162.718C19.6199 163.489 19.8919 163.874 20.4359 163.874C20.6966 163.874 20.9006 163.778 21.0479 163.585C21.1952 163.392 21.2689 163.103 21.2689 162.718C21.2689 161.936 20.9912 161.545 20.4359 161.545ZM25.7059 169.314C25.7059 168.396 25.9666 167.688 26.4879 167.189C27.0092 166.69 27.6892 166.441 28.5279 166.441C29.3666 166.441 30.0466 166.69 30.5679 167.189C31.0892 167.688 31.3499 168.396 31.3499 169.314C31.3499 170.232 31.0892 170.94 30.5679 171.439C30.0466 171.938 29.3666 172.187 28.5279 172.187C27.6892 172.187 27.0092 171.938 26.4879 171.439C25.9666 170.94 25.7059 170.232 25.7059 169.314ZM28.5109 168.141C28.2502 168.141 28.0462 168.237 27.8989 168.43C27.7629 168.623 27.6949 168.917 27.6949 169.314C27.6949 170.085 27.9669 170.47 28.5109 170.47C28.7716 170.47 28.9756 170.374 29.1229 170.181C29.2702 169.988 29.3439 169.699 29.3439 169.314C29.3439 168.929 29.2702 168.64 29.1229 168.447C28.9756 168.243 28.7716 168.141 28.5109 168.141Z" fill="black"/>
<path d="M77.7416 46.625C77.7416 44.6757 78.1156 43.14 78.8636 42.018C79.6229 40.896 80.8412 40.335 82.5186 40.335C84.1959 40.335 85.4086 40.896 86.1566 42.018C86.9159 43.14 87.2956 44.6757 87.2956 46.625C87.2956 48.597 86.9159 50.144 86.1566 51.266C85.4086 52.388 84.1959 52.949 82.5186 52.949C80.8412 52.949 79.6229 52.388 78.8636 51.266C78.1156 50.144 77.7416 48.597 77.7416 46.625ZM84.4396 46.625C84.4396 45.4803 84.3149 44.602 84.0656 43.99C83.8162 43.3667 83.3006 43.055 82.5186 43.055C81.7366 43.055 81.2209 43.3667 80.9716 43.99C80.7222 44.602 80.5976 45.4803 80.5976 46.625C80.5976 47.3957 80.6429 48.036 80.7336 48.546C80.8242 49.0447 81.0056 49.4527 81.2776 49.77C81.5609 50.076 81.9746 50.229 82.5186 50.229C83.0626 50.229 83.4706 50.076 83.7426 49.77C84.0259 49.4527 84.2129 49.0447 84.3036 48.546C84.3942 48.036 84.4396 47.3957 84.4396 46.625ZM97.5694 43.123H92.2654V45.469C92.4921 45.2197 92.8094 45.0157 93.2174 44.857C93.6254 44.6983 94.0674 44.619 94.5434 44.619C95.3934 44.619 96.0961 44.8117 96.6514 45.197C97.2181 45.5823 97.6317 46.081 97.8924 46.693C98.1531 47.305 98.2834 47.968 98.2834 48.682C98.2834 50.008 97.9094 51.062 97.1614 51.844C96.4134 52.6147 95.3594 53 93.9994 53C93.0927 53 92.3051 52.847 91.6364 52.541C90.9677 52.2237 90.4521 51.7873 90.0894 51.232C89.7267 50.6767 89.5284 50.0363 89.4944 49.311H92.3334C92.4014 49.6623 92.5657 49.957 92.8264 50.195C93.0871 50.4217 93.4441 50.535 93.8974 50.535C94.4301 50.535 94.8267 50.365 95.0874 50.025C95.3481 49.685 95.4784 49.2317 95.4784 48.665C95.4784 48.1097 95.3424 47.6847 95.0704 47.39C94.7984 47.0953 94.4017 46.948 93.8804 46.948C93.4951 46.948 93.1777 47.0443 92.9284 47.237C92.6791 47.4183 92.5147 47.662 92.4354 47.968H89.6304V40.573H97.5694V43.123ZM99.65 43.718C99.65 42.8 99.9107 42.0917 100.432 41.593C100.965 41.0943 101.65 40.845 102.489 40.845C103.328 40.845 104.008 41.0943 104.529 41.593C105.05 42.0917 105.311 42.8 105.311 43.718C105.311 44.636 105.05 45.3443 104.529 45.843C104.008 46.3417 103.328 46.591 102.489 46.591C101.65 46.591 100.965 46.3417 100.432 45.843C99.9107 45.3443 99.65 44.636 99.65 43.718ZM111.193 41.032L104.648 53H101.843L108.388 41.032H111.193ZM102.472 42.545C101.928 42.545 101.656 42.936 101.656 43.718C101.656 44.4887 101.928 44.874 102.472 44.874C102.733 44.874 102.937 44.7777 103.084 44.585C103.231 44.3923 103.305 44.1033 103.305 43.718C103.305 42.936 103.027 42.545 102.472 42.545ZM107.742 50.314C107.742 49.396 108.003 48.6877 108.524 48.189C109.045 47.6903 109.725 47.441 110.564 47.441C111.403 47.441 112.083 47.6903 112.604 48.189C113.125 48.6877 113.386 49.396 113.386 50.314C113.386 51.232 113.125 51.9403 112.604 52.439C112.083 52.9377 111.403 53.187 110.564 53.187C109.725 53.187 109.045 52.9377 108.524 52.439C108.003 51.9403 107.742 51.232 107.742 50.314ZM110.547 49.141C110.286 49.141 110.082 49.2373 109.935 49.43C109.799 49.6227 109.731 49.9173 109.731 50.314C109.731 51.0847 110.003 51.47 110.547 51.47C110.808 51.47 111.012 51.3737 111.159 51.181C111.306 50.9883 111.38 50.6993 111.38 50.314C111.38 49.9287 111.306 49.6397 111.159 49.447C111.012 49.243 110.808 49.141 110.547 49.141Z" fill="black"/>
<path d="M146.933 15.625C146.933 13.6757 147.307 12.14 148.055 11.018C148.814 9.896 150.033 9.335 151.71 9.335C153.387 9.335 154.6 9.896 155.348 11.018C156.107 12.14 156.487 13.6757 156.487 15.625C156.487 17.597 156.107 19.144 155.348 20.266C154.6 21.388 153.387 21.949 151.71 21.949C150.033 21.949 148.814 21.388 148.055 20.266C147.307 19.144 146.933 17.597 146.933 15.625ZM153.631 15.625C153.631 14.4803 153.506 13.602 153.257 12.99C153.008 12.3667 152.492 12.055 151.71 12.055C150.928 12.055 150.412 12.3667 150.163 12.99C149.914 13.602 149.789 14.4803 149.789 15.625C149.789 16.3957 149.834 17.036 149.925 17.546C150.016 18.0447 150.197 18.4527 150.469 18.77C150.752 19.076 151.166 19.229 151.71 19.229C152.254 19.229 152.662 19.076 152.934 18.77C153.217 18.4527 153.404 18.0447 153.495 17.546C153.586 17.036 153.631 16.3957 153.631 15.625ZM157.921 19.671C158.306 19.365 158.482 19.2233 158.448 19.246C159.558 18.328 160.431 17.5743 161.066 16.985C161.712 16.3957 162.256 15.778 162.698 15.132C163.14 14.486 163.361 13.857 163.361 13.245C163.361 12.7803 163.253 12.4177 163.038 12.157C162.822 11.8963 162.499 11.766 162.069 11.766C161.638 11.766 161.298 11.9303 161.049 12.259C160.811 12.5763 160.692 13.0297 160.692 13.619H157.887C157.909 12.6557 158.113 11.851 158.499 11.205C158.895 10.559 159.411 10.083 160.046 9.777C160.692 9.471 161.406 9.318 162.188 9.318C163.536 9.318 164.551 9.66367 165.231 10.355C165.922 11.0463 166.268 11.9473 166.268 13.058C166.268 14.2707 165.854 15.3983 165.027 16.441C164.199 17.4723 163.145 18.481 161.865 19.467H166.455V21.83H157.921V19.671ZM167.497 12.718C167.497 11.8 167.757 11.0917 168.279 10.593C168.811 10.0943 169.497 9.845 170.336 9.845C171.174 9.845 171.854 10.0943 172.376 10.593C172.897 11.0917 173.158 11.8 173.158 12.718C173.158 13.636 172.897 14.3443 172.376 14.843C171.854 15.3417 171.174 15.591 170.336 15.591C169.497 15.591 168.811 15.3417 168.279 14.843C167.757 14.3443 167.497 13.636 167.497 12.718ZM179.04 10.032L172.495 22H169.69L176.235 10.032H179.04ZM170.319 11.545C169.775 11.545 169.503 11.936 169.503 12.718C169.503 13.4887 169.775 13.874 170.319 13.874C170.579 13.874 170.783 13.7777 170.931 13.585C171.078 13.3923 171.152 13.1033 171.152 12.718C171.152 11.936 170.874 11.545 170.319 11.545ZM175.589 19.314C175.589 18.396 175.849 17.6877 176.371 17.189C176.892 16.6903 177.572 16.441 178.411 16.441C179.249 16.441 179.929 16.6903 180.451 17.189C180.972 17.6877 181.233 18.396 181.233 19.314C181.233 20.232 180.972 20.9403 180.451 21.439C179.929 21.9377 179.249 22.187 178.411 22.187C177.572 22.187 176.892 21.9377 176.371 21.439C175.849 20.9403 175.589 20.232 175.589 19.314ZM178.394 18.141C178.133 18.141 177.929 18.2373 177.782 18.43C177.646 18.6227 177.578 18.9173 177.578 19.314C177.578 20.0847 177.85 20.47 178.394 20.47C178.654 20.47 178.858 20.3737 179.006 20.181C179.153 19.9883 179.227 19.6993 179.227 19.314C179.227 18.9287 179.153 18.6397 179.006 18.447C178.858 18.243 178.654 18.141 178.394 18.141Z" fill="black"/>
<path d="M198.507 6.625C198.507 4.67567 198.881 3.14 199.629 2.018C200.389 0.895999 201.607 0.334999 203.284 0.334999C204.962 0.334999 206.174 0.895999 206.922 2.018C207.682 3.14 208.061 4.67567 208.061 6.625C208.061 8.597 207.682 10.144 206.922 11.266C206.174 12.388 204.962 12.949 203.284 12.949C201.607 12.949 200.389 12.388 199.629 11.266C198.881 10.144 198.507 8.597 198.507 6.625ZM205.205 6.625C205.205 5.48033 205.081 4.602 204.831 3.99C204.582 3.36667 204.066 3.055 203.284 3.055C202.502 3.055 201.987 3.36667 201.737 3.99C201.488 4.602 201.363 5.48033 201.363 6.625C201.363 7.39567 201.409 8.036 201.499 8.546C201.59 9.04467 201.771 9.45267 202.043 9.77C202.327 10.076 202.74 10.229 203.284 10.229C203.828 10.229 204.236 10.076 204.508 9.77C204.792 9.45267 204.979 9.04467 205.069 8.546C205.16 8.036 205.205 7.39567 205.205 6.625ZM209.699 4.092C209.744 2.87933 210.141 1.94433 210.889 1.287C211.637 0.629666 212.651 0.300999 213.932 0.300999C214.782 0.300999 215.507 0.448333 216.108 0.743C216.72 1.03767 217.179 1.44 217.485 1.95C217.802 2.46 217.961 3.03233 217.961 3.667C217.961 4.415 217.774 5.027 217.4 5.503C217.026 5.96767 216.59 6.285 216.091 6.455V6.523C216.737 6.73833 217.247 7.09533 217.621 7.594C217.995 8.09267 218.182 8.733 218.182 9.515C218.182 10.2177 218.018 10.841 217.689 11.385C217.372 11.9177 216.901 12.337 216.278 12.643C215.666 12.949 214.935 13.102 214.085 13.102C212.725 13.102 211.637 12.7677 210.821 12.099C210.016 11.4303 209.591 10.4217 209.546 9.073H212.368C212.379 9.57167 212.521 9.96833 212.793 10.263C213.065 10.5463 213.462 10.688 213.983 10.688C214.425 10.688 214.765 10.5633 215.003 10.314C215.252 10.0533 215.377 9.71333 215.377 9.294C215.377 8.75 215.201 8.359 214.85 8.121C214.51 7.87167 213.96 7.747 213.201 7.747H212.657V5.384H213.201C213.779 5.384 214.244 5.28767 214.595 5.095C214.958 4.891 215.139 4.534 215.139 4.024C215.139 3.616 215.026 3.29867 214.799 3.072C214.572 2.84533 214.261 2.732 213.864 2.732C213.433 2.732 213.11 2.86233 212.895 3.123C212.691 3.38367 212.572 3.70667 212.538 4.092H209.699ZM219.652 3.718C219.652 2.8 219.913 2.09167 220.434 1.593C220.967 1.09433 221.652 0.844999 222.491 0.844999C223.33 0.844999 224.01 1.09433 224.531 1.593C225.052 2.09167 225.313 2.8 225.313 3.718C225.313 4.636 225.052 5.34433 224.531 5.843C224.01 6.34167 223.33 6.591 222.491 6.591C221.652 6.591 220.967 6.34167 220.434 5.843C219.913 5.34433 219.652 4.636 219.652 3.718ZM231.195 1.032L224.65 13H221.845L228.39 1.032H231.195ZM222.474 2.545C221.93 2.545 221.658 2.936 221.658 3.718C221.658 4.48867 221.93 4.874 222.474 4.874C222.735 4.874 222.939 4.77767 223.086 4.585C223.233 4.39233 223.307 4.10333 223.307 3.718C223.307 2.936 223.029 2.545 222.474 2.545ZM227.744 10.314C227.744 9.396 228.005 8.68767 228.526 8.189C229.047 7.69033 229.727 7.441 230.566 7.441C231.405 7.441 232.085 7.69033 232.606 8.189C233.127 8.68767 233.388 9.396 233.388 10.314C233.388 11.232 233.127 11.9403 232.606 12.439C232.085 12.9377 231.405 13.187 230.566 13.187C229.727 13.187 229.047 12.9377 228.526 12.439C228.005 11.9403 227.744 11.232 227.744 10.314ZM230.549 9.141C230.288 9.141 230.084 9.23733 229.937 9.43C229.801 9.62267 229.733 9.91733 229.733 10.314C229.733 11.0847 230.005 11.47 230.549 11.47C230.81 11.47 231.014 11.3737 231.161 11.181C231.308 10.9883 231.382 10.6993 231.382 10.314C231.382 9.92867 231.308 9.63967 231.161 9.447C231.014 9.243 230.81 9.141 230.549 9.141Z" fill="black"/>
</svg>
