<svg width="94" height="69" viewBox="0 0 94 69" fill="none" xmlns="http://www.w3.org/2000/svg">
<g opacity="0.14">
<path d="M51.835 41.516C51.835 36.37 51.8861 31.223 51.8251 26.077C51.7251 17.388 55.825 11.112 63.253 7.15999C67.896 4.68899 72.953 2.99598 77.827 0.959978C79.014 0.459978 79.637 0.839971 79.727 2.15297C79.899 4.76297 79.8271 6.93599 77.0221 8.63399C72.8271 11.173 69.4771 14.734 68.1341 19.716C67.9429 20.4227 67.8029 21.1422 67.715 21.869C67.323 25.146 68.036 25.929 71.396 25.935C75.734 25.943 80.072 25.911 84.409 25.943C90.187 25.987 93.894 29.696 93.917 35.493C93.9484 43.2123 93.9484 50.9317 93.917 58.651C93.898 64.498 90.099 68.217 84.189 68.223C76.6897 68.2303 69.1897 68.2303 61.689 68.223C55.602 68.223 51.835 64.413 51.835 58.284C51.8344 52.6913 51.8344 47.102 51.835 41.516Z" fill="white"/>
<path d="M0.619055 41.419C0.619055 36.345 0.702056 31.27 0.604056 26.198C0.425056 17.006 4.83905 10.634 12.8041 6.66902C17.1941 4.48302 21.874 2.88102 26.411 0.988021C27.767 0.422021 28.3451 0.919002 28.4361 2.274C28.6071 4.818 28.4621 6.88301 25.7591 8.56401C20.9841 11.534 17.3041 15.624 16.3671 21.546C15.8341 24.91 16.6211 25.92 19.9461 25.927C24.2841 25.936 28.6231 25.911 32.9621 25.934C38.8491 25.966 42.6451 29.711 42.6681 35.557C42.6987 43.4237 42.6987 51.2903 42.6681 59.157C42.6864 60.3384 42.469 61.5115 42.0286 62.6079C41.5883 63.7043 40.9337 64.7018 40.1032 65.5423C39.2728 66.3827 38.2831 67.0491 37.1921 67.5025C36.101 67.9559 34.9305 68.1873 33.749 68.183C25.735 68.275 17.72 68.275 9.70405 68.183C8.48583 68.1946 7.27794 67.9587 6.15357 67.4897C5.0292 67.0207 4.01175 66.3283 3.16288 65.4545C2.314 64.5806 1.65137 63.5436 1.21514 62.4061C0.778909 61.2686 0.578161 60.0544 0.625052 58.837C0.605052 53.037 0.617055 47.228 0.619055 41.419Z" fill="white"/>
</g>
</svg>
