<svg width="17" height="17" viewBox="0 0 17 17" fill="none" xmlns="http://www.w3.org/2000/svg">
<path d="M8.15 0.699997C6.53809 0.699997 4.96237 1.17799 3.62211 2.07352C2.28185 2.96905 1.23724 4.24191 0.620385 5.73113C0.00353128 7.22034 -0.157866 8.85904 0.156604 10.44C0.471073 12.0209 1.24729 13.4731 2.38708 14.6129C3.52688 15.7527 4.97907 16.5289 6.56002 16.8434C8.14096 17.1579 9.77966 16.9965 11.2689 16.3796C12.7581 15.7628 14.0309 14.7182 14.9265 13.3779C15.822 12.0376 16.3 10.4619 16.3 8.85C16.3 6.68848 15.4413 4.6155 13.9129 3.08708C12.3845 1.55866 10.3115 0.699997 8.15 0.699997ZM10.867 10.607C10.9327 10.6674 10.9858 10.7402 11.0233 10.8211C11.0609 10.902 11.0821 10.9896 11.0858 11.0787C11.0895 11.1679 11.0757 11.2569 11.045 11.3406C11.0143 11.4244 10.9674 11.5013 10.907 11.567C10.8466 11.6327 10.7738 11.6858 10.6929 11.7233C10.612 11.7609 10.5244 11.7821 10.4353 11.7858C10.3461 11.7895 10.2571 11.7757 10.1734 11.745C10.0896 11.7143 10.0127 11.6674 9.947 11.607C9.933 11.5943 9.91967 11.581 9.907 11.567L8.15 9.81L6.394 11.567C6.26573 11.6895 6.0946 11.757 5.91722 11.755C5.73984 11.7529 5.57029 11.6816 5.44486 11.5561C5.31942 11.4307 5.24805 11.2612 5.24603 11.0838C5.244 10.9064 5.31147 10.7353 5.434 10.607L7.19 8.85L5.433 7.094C5.31047 6.96573 5.243 6.79459 5.24503 6.61721C5.24705 6.43983 5.31842 6.27029 5.44386 6.14485C5.56929 6.01941 5.73884 5.94805 5.91622 5.94602C6.0936 5.94399 6.26473 6.01146 6.393 6.134L8.15 7.89L9.907 6.133C9.96741 6.06734 10.0402 6.01422 10.1211 5.97667C10.202 5.93913 10.2896 5.91789 10.3787 5.91417C10.4679 5.91046 10.5569 5.92434 10.6406 5.95502C10.7244 5.98571 10.8013 6.03259 10.867 6.093C10.9327 6.15341 10.9858 6.22615 11.0233 6.30709C11.0609 6.38803 11.0821 6.47557 11.0858 6.56471C11.0895 6.65386 11.0757 6.74286 11.045 6.82664C11.0143 6.91042 10.9674 6.98734 10.907 7.053C10.8943 7.067 10.881 7.08033 10.867 7.093L9.11 8.85L10.867 10.607Z" fill="black"/>
</svg>
