<svg width="122" height="35" viewBox="0 0 122 35" fill="none" xmlns="http://www.w3.org/2000/svg">
<path d="M14.008 26L6.456 16.08V26H0.984V3.536H6.456V13.392L13.944 3.536H20.376L11.672 14.544L20.696 26H14.008ZM22.2085 17.04C22.2085 15.2053 22.5498 13.5947 23.2325 12.208C23.9365 10.8213 24.8858 9.75467 26.0805 9.008C27.2752 8.26133 28.6085 7.888 30.0805 7.888C31.3392 7.888 32.4378 8.144 33.3765 8.656C34.3365 9.168 35.0725 9.84 35.5845 10.672V8.144H41.0565V26H35.5845V23.472C35.0512 24.304 34.3045 24.976 33.3445 25.488C32.4058 26 31.3072 26.256 30.0485 26.256C28.5978 26.256 27.2752 25.8827 26.0805 25.136C24.8858 24.368 23.9365 23.2907 23.2325 21.904C22.5498 20.496 22.2085 18.8747 22.2085 17.04ZM35.5845 17.072C35.5845 15.7067 35.2005 14.6293 34.4325 13.84C33.6858 13.0507 32.7685 12.656 31.6805 12.656C30.5925 12.656 29.6645 13.0507 28.8965 13.84C28.1498 14.608 27.7765 15.6747 27.7765 17.04C27.7765 18.4053 28.1498 19.4933 28.8965 20.304C29.6645 21.0933 30.5925 21.488 31.6805 21.488C32.7685 21.488 33.6858 21.0933 34.4325 20.304C35.2005 19.5147 35.5845 18.4373 35.5845 17.072ZM55.8953 7.952C57.9859 7.952 59.6499 8.63467 60.8873 10C62.1459 11.344 62.7753 13.2 62.7753 15.568V26H57.3353V16.304C57.3353 15.1093 57.0259 14.1813 56.4073 13.52C55.7886 12.8587 54.9566 12.528 53.9113 12.528C52.8659 12.528 52.0339 12.8587 51.4153 13.52C50.7966 14.1813 50.4873 15.1093 50.4873 16.304V26H45.0153V8.144H50.4873V10.512C51.0419 9.72267 51.7886 9.104 52.7273 8.656C53.6659 8.18667 54.7219 7.952 55.8953 7.952ZM69.2977 6.288C68.3378 6.288 67.5484 6.01067 66.9298 5.456C66.3324 4.88 66.0338 4.176 66.0338 3.344C66.0338 2.49067 66.3324 1.78667 66.9298 1.232C67.5484 0.655998 68.3378 0.367998 69.2977 0.367998C70.2364 0.367998 71.0044 0.655998 71.6018 1.232C72.2204 1.78667 72.5298 2.49067 72.5298 3.344C72.5298 4.176 72.2204 4.88 71.6018 5.456C71.0044 6.01067 70.2364 6.288 69.2977 6.288ZM72.0498 28.304C72.0498 30.5013 71.4951 32.08 70.3858 33.04C69.2764 34.0213 67.7298 34.512 65.7458 34.512H63.6017V29.872H64.9138C65.5111 29.872 65.9378 29.7547 66.1938 29.52C66.4498 29.2853 66.5778 28.9013 66.5778 28.368V8.144H72.0498V28.304ZM78.736 6.288C77.776 6.288 76.9867 6.01067 76.368 5.456C75.7707 4.88 75.472 4.176 75.472 3.344C75.472 2.49067 75.7707 1.78667 76.368 1.232C76.9867 0.655998 77.776 0.367998 78.736 0.367998C79.6747 0.367998 80.4427 0.655998 81.04 1.232C81.6587 1.78667 81.968 2.49067 81.968 3.344C81.968 4.176 81.6587 4.88 81.04 5.456C80.4427 6.01067 79.6747 6.288 78.736 6.288ZM81.456 8.144V26H75.984V8.144H81.456ZM106.187 22.032H97.8028L96.4588 26H90.7308L98.8588 3.536H105.195L113.323 26H107.531L106.187 22.032ZM104.779 17.808L101.995 9.584L99.2428 17.808H104.779ZM121.269 3.536V26H115.797V3.536H121.269Z" fill="#0C77FF"/>
</svg>
