<svg width="24" height="24" viewBox="0 0 24 24" fill="none" xmlns="http://www.w3.org/2000/svg">
<path d="M12 0C9.62663 0 7.30655 0.703788 5.33316 2.02236C3.35977 3.34094 1.8217 5.21509 0.913451 7.4078C0.00519943 9.60051 -0.232441 12.0133 0.230582 14.3411C0.693605 16.6689 1.83649 18.8071 3.51472 20.4853C5.19295 22.1635 7.33115 23.3064 9.65892 23.7694C11.9867 24.2324 14.3995 23.9948 16.5922 23.0866C18.7849 22.1783 20.6591 20.6402 21.9776 18.6668C23.2962 16.6935 24 14.3734 24 12C23.9966 8.81846 22.7312 5.76821 20.4815 3.51852C18.2318 1.26883 15.1815 0.00344108 12 0ZM12 21C10.22 21 8.47992 20.4722 6.99987 19.4832C5.51983 18.4943 4.36628 17.0887 3.68509 15.4442C3.0039 13.7996 2.82567 11.99 3.17294 10.2442C3.5202 8.49836 4.37737 6.89471 5.63604 5.63604C6.89472 4.37737 8.49836 3.5202 10.2442 3.17293C11.99 2.82567 13.7996 3.0039 15.4442 3.68508C17.0887 4.36627 18.4943 5.51983 19.4832 6.99987C20.4722 8.47991 21 10.22 21 12C20.9974 14.3861 20.0483 16.6738 18.361 18.361C16.6738 20.0483 14.3861 20.9974 12 21ZM15.914 13L10.714 15.85C10.5392 15.9487 10.3416 15.9999 10.1409 15.9985C9.9402 15.9971 9.74336 15.9431 9.56999 15.842C9.39661 15.7408 9.25276 15.596 9.15276 15.422C9.05276 15.2479 9.00009 15.0507 9.00001 14.85V9.15C8.99999 8.94945 9.05251 8.7524 9.15234 8.57846C9.25216 8.40452 9.39581 8.25977 9.56899 8.15862C9.74216 8.05747 9.9388 8.00345 10.1393 8.00194C10.3399 8.00042 10.5373 8.05147 10.712 8.15L15.912 11C16.0893 11.0999 16.2368 11.2452 16.3394 11.4209C16.4421 11.5967 16.4962 11.7965 16.4962 12C16.4962 12.2035 16.4421 12.4033 16.3394 12.5791C16.2368 12.7548 16.0893 12.9001 15.912 13H15.914Z" fill="white"/>
</svg>
