<svg width="293" height="360" viewBox="0 0 293 360" fill="none" xmlns="http://www.w3.org/2000/svg">
<path d="M146.53 348.424C181.098 348.424 209.12 336.936 209.12 322.764C209.12 308.592 181.098 297.104 146.53 297.104C111.963 297.104 83.9404 308.592 83.9404 322.764C83.9404 336.936 111.963 348.424 146.53 348.424Z" fill="#0C77FF"/>
<path d="M146.53 348.424C181.098 348.424 209.12 336.936 209.12 322.764C209.12 308.592 181.098 297.104 146.53 297.104C111.963 297.104 83.9404 308.592 83.9404 322.764C83.9404 336.936 111.963 348.424 146.53 348.424Z" fill="#0C77FF"/>
<path opacity="0.9" d="M146.53 348.424C181.098 348.424 209.12 336.936 209.12 322.764C209.12 308.592 181.098 297.104 146.53 297.104C111.963 297.104 83.9404 308.592 83.9404 322.764C83.9404 336.936 111.963 348.424 146.53 348.424Z" fill="white"/>
<path d="M82.7901 309.504C82.9845 302.26 85.9986 295.378 91.191 290.323C96.3833 285.268 103.344 282.44 110.59 282.44C117.837 282.44 124.797 285.268 129.989 290.323C135.182 295.378 138.196 302.26 138.39 309.504C138.39 309.774 138.39 310.014 138.39 310.284V311.054C138.07 314.904 135.39 318.684 130.25 321.644C119.4 327.914 101.77 327.914 90.9001 321.644C85.8201 318.644 83.1001 314.904 82.7901 311.054V310.284C82.7901 310.014 82.7701 309.774 82.7901 309.504Z" fill="#0C77FF"/>
<path opacity="0.8" d="M82.7901 309.504C82.9845 302.26 85.9986 295.378 91.191 290.323C96.3833 285.268 103.344 282.44 110.59 282.44C117.837 282.44 124.797 285.268 129.989 290.323C135.182 295.378 138.196 302.26 138.39 309.504C138.39 309.774 138.39 310.014 138.39 310.284V311.054C138.07 314.904 135.39 318.684 130.25 321.644C119.4 327.914 101.77 327.914 90.9001 321.644C85.8201 318.644 83.1001 314.904 82.7901 311.054V310.284C82.7901 310.014 82.7701 309.774 82.7901 309.504Z" fill="white"/>
<path opacity="0.3" d="M98.5 285.234C102.679 283.215 107.297 282.274 111.933 282.499C116.569 282.723 121.075 284.105 125.04 286.518C129.005 288.932 132.302 292.3 134.63 296.315C136.959 300.33 138.244 304.864 138.37 309.504V311.054C138.05 314.904 135.37 318.684 130.23 321.644C125.915 324.005 121.173 325.484 116.28 325.994C123.49 324.744 128.16 316.694 125.94 307.804C123.39 297.484 112.96 282.574 98.5 285.234Z" fill="white"/>
<path opacity="0.1" d="M82.79 311.054V309.504C82.892 305.685 83.7834 301.929 85.408 298.471C87.0327 295.014 89.3554 291.93 92.23 289.414C89.23 292.524 82.49 304.224 89.79 313.154C94.59 319.024 117.39 327.394 136.15 316.634C134.536 318.677 132.53 320.377 130.25 321.634C119.4 327.904 101.77 327.904 90.9 321.634C85.82 318.684 83.1 314.904 82.79 311.054Z" fill="#0C77FF"/>
<path opacity="0.5" d="M110.87 288.734C109.63 291.564 112.02 295.354 116.21 297.194C120.4 299.034 124.82 298.194 126.06 295.404C127.3 292.614 124.91 288.774 120.72 286.934C116.53 285.094 112.12 285.894 110.87 288.734Z" fill="white"/>
<path opacity="0.5" d="M126.98 300.264C126.33 301.744 127.27 303.584 129.08 304.384C130.89 305.184 132.88 304.624 133.53 303.144C134.18 301.664 133.24 299.824 131.43 299.034C129.62 298.244 127.63 298.834 126.98 300.264Z" fill="white"/>
<path d="M197.24 315.514C197.24 309.253 194.753 303.248 190.326 298.821C185.899 294.394 179.894 291.906 173.633 291.906C167.372 291.906 161.367 294.394 156.94 298.821C152.513 303.248 150.025 309.253 150.025 315.514C150.025 315.744 150.025 315.954 150.025 316.174V316.834C150.285 320.104 152.595 323.314 156.935 325.834C166.145 331.154 181.115 331.154 190.345 325.834C194.665 323.324 196.965 320.114 197.235 316.834V316.174C197.24 315.944 197.26 315.744 197.24 315.514Z" fill="#0C77FF"/>
<path opacity="0.8" d="M197.24 315.514C197.24 309.253 194.753 303.248 190.326 298.821C185.899 294.394 179.894 291.906 173.633 291.906C167.372 291.906 161.367 294.394 156.94 298.821C152.513 303.248 150.025 309.253 150.025 315.514C150.025 315.744 150.025 315.954 150.025 316.174V316.834C150.285 320.104 152.595 323.314 156.935 325.834C166.145 331.154 181.115 331.154 190.345 325.834C194.665 323.324 196.965 320.114 197.235 316.834V316.174C197.24 315.944 197.26 315.744 197.24 315.514Z" fill="white"/>
<path opacity="0.3" d="M183.88 294.904C180.332 293.186 176.41 292.384 172.472 292.573C168.534 292.762 164.707 293.935 161.34 295.986C157.972 298.036 155.173 300.898 153.197 304.309C151.221 307.721 150.133 311.573 150.03 315.514V316.834C150.29 320.104 152.6 323.314 156.94 325.834C160.602 327.839 164.628 329.093 168.78 329.524C162.66 328.474 158.69 321.634 160.58 314.074C162.76 305.304 171.62 292.644 183.88 294.904Z" fill="white"/>
<path opacity="0.1" d="M197.24 316.834V315.514C197.157 312.272 196.404 309.082 195.027 306.146C193.65 303.21 191.679 300.591 189.24 298.454C191.8 301.094 197.51 311.034 191.31 318.614C187.23 323.614 167.87 330.714 151.93 321.614C153.298 323.349 154.997 324.793 156.93 325.864C166.14 331.184 181.11 331.184 190.34 325.864C194.67 323.314 196.97 320.104 197.24 316.834Z" fill="#0C77FF"/>
<path opacity="0.5" d="M173.39 297.834C174.45 300.244 172.39 303.464 168.86 305.024C165.33 306.584 161.55 305.904 160.49 303.494C159.43 301.084 161.49 297.874 165.03 296.304C168.57 294.734 172.34 295.464 173.39 297.834Z" fill="white"/>
<path opacity="0.5" d="M159.71 307.674C160.087 308.191 160.295 308.813 160.304 309.453C160.314 310.094 160.125 310.721 159.763 311.25C159.402 311.778 158.886 312.182 158.285 312.405C157.685 312.629 157.031 312.66 156.412 312.497C155.793 312.333 155.239 311.981 154.828 311.491C154.417 311 154.168 310.394 154.115 309.755C154.062 309.117 154.208 308.478 154.533 307.927C154.858 307.375 155.346 306.937 155.93 306.674C156.566 306.317 157.317 306.222 158.022 306.409C158.728 306.595 159.333 307.049 159.71 307.674Z" fill="white"/>
<path d="M221.24 319.564C221.095 315.521 219.387 311.691 216.476 308.882C213.564 306.073 209.676 304.503 205.63 304.503C201.584 304.503 197.696 306.073 194.784 308.882C191.873 311.691 190.165 315.521 190.02 319.564C189.993 319.857 189.993 320.151 190.02 320.444C190.19 322.604 191.72 324.724 194.59 326.384C200.68 329.904 210.59 329.904 216.68 326.384C219.54 324.724 221.06 322.604 221.24 320.444V320.004C221.24 319.854 221.25 319.714 221.24 319.564Z" fill="#0C77FF"/>
<path opacity="0.9" d="M221.24 319.564C221.095 315.521 219.387 311.691 216.476 308.882C213.564 306.073 209.676 304.503 205.63 304.503C201.584 304.503 197.696 306.073 194.784 308.882C191.873 311.691 190.165 315.521 190.02 319.564C189.993 319.857 189.993 320.151 190.02 320.444C190.19 322.604 191.72 324.724 194.59 326.384C200.68 329.904 210.59 329.904 216.68 326.384C219.54 324.724 221.06 322.604 221.24 320.444V320.004C221.24 319.854 221.25 319.714 221.24 319.564Z" fill="white"/>
<path opacity="0.5" d="M212.41 305.944C210.064 304.809 207.471 304.279 204.868 304.404C202.264 304.529 199.734 305.304 197.507 306.658C195.28 308.013 193.428 309.904 192.121 312.158C190.813 314.412 190.09 316.959 190.02 319.564C189.993 319.857 189.993 320.151 190.02 320.444C190.19 322.604 191.72 324.724 194.59 326.384C197.01 327.715 199.673 328.545 202.42 328.824C198.37 328.124 195.75 323.604 197 318.614C198.44 312.834 204.3 304.444 212.41 305.944Z" fill="white"/>
<path opacity="0.1" d="M221.24 320.444V319.564C221.183 317.42 220.683 315.31 219.771 313.369C218.859 311.428 217.554 309.696 215.94 308.284C217.64 310.024 221.41 316.604 217.31 321.614C214.61 324.914 201.81 329.614 191.31 323.614C192.221 324.76 193.349 325.715 194.63 326.424C200.72 329.944 210.63 329.944 216.72 326.424C219.5 324.724 221.06 322.604 221.24 320.444Z" fill="#0C77FF"/>
<path opacity="0.5" d="M205.5 307.904C206.2 309.494 204.86 311.624 202.5 312.654C200.14 313.684 197.67 313.234 196.97 311.654C196.27 310.074 197.61 307.934 199.97 306.904C202.33 305.874 204.77 306.304 205.5 307.904Z" fill="white"/>
<path opacity="0.5" d="M196.42 314.384C196.518 314.846 196.455 315.328 196.239 315.748C196.023 316.168 195.669 316.501 195.237 316.691C194.804 316.88 194.319 316.914 193.864 316.787C193.409 316.66 193.012 316.38 192.74 315.994C192.526 315.506 192.515 314.953 192.709 314.457C192.903 313.961 193.287 313.562 193.775 313.349C194.263 313.135 194.816 313.125 195.312 313.319C195.808 313.513 196.206 313.896 196.42 314.384Z" fill="white"/>
<path d="M257.08 322.244C257.08 316.617 254.845 311.22 250.866 307.241C246.887 303.262 241.49 301.026 235.863 301.026C230.236 301.026 224.839 303.262 220.86 307.241C216.881 311.22 214.645 316.617 214.645 322.244C214.635 322.441 214.635 322.637 214.645 322.834C214.635 323.031 214.635 323.227 214.645 323.424C214.885 326.364 216.955 329.244 220.855 331.504C229.135 336.294 242.585 336.294 250.855 331.504C254.735 329.244 256.805 326.364 257.045 323.424C257.055 323.227 257.055 323.031 257.045 322.834C257.067 322.638 257.079 322.441 257.08 322.244Z" fill="#0C77FF"/>
<path opacity="0.7" d="M257.08 322.244C257.08 316.617 254.845 311.22 250.866 307.241C246.887 303.262 241.49 301.026 235.863 301.026C230.236 301.026 224.839 303.262 220.86 307.241C216.881 311.22 214.645 316.617 214.645 322.244C214.635 322.441 214.635 322.637 214.645 322.834C214.635 323.031 214.635 323.227 214.645 323.424C214.885 326.364 216.955 329.244 220.855 331.504C229.135 336.294 242.585 336.294 250.855 331.504C254.735 329.244 256.805 326.364 257.045 323.424C257.055 323.227 257.055 323.031 257.045 322.834C257.067 322.638 257.079 322.441 257.08 322.244Z" fill="white"/>
<path opacity="0.3" d="M245.08 303.724C241.891 302.18 238.366 301.46 234.827 301.63C231.288 301.8 227.848 302.854 224.821 304.696C221.794 306.538 219.278 309.109 217.501 312.175C215.724 315.24 214.744 318.702 214.65 322.244C214.64 322.441 214.64 322.637 214.65 322.834C214.64 323.031 214.64 323.227 214.65 323.424C214.89 326.364 216.96 329.244 220.86 331.504C224.151 333.31 227.768 334.442 231.5 334.834C225.99 333.884 222.43 327.744 224.12 320.954C226.1 313.064 234.06 301.684 245.08 303.724Z" fill="white"/>
<path opacity="0.1" d="M257.08 323.424C257.09 323.227 257.09 323.031 257.08 322.834C257.09 322.637 257.09 322.441 257.08 322.244C257.003 319.329 256.324 316.461 255.085 313.821C253.846 311.181 252.074 308.826 249.88 306.904C252.18 309.284 257.31 318.214 251.74 325.024C248.07 329.504 230.68 335.894 216.36 327.684C217.588 329.248 219.118 330.547 220.86 331.504C229.14 336.294 242.59 336.294 250.86 331.504C254.77 329.244 256.84 326.364 257.08 323.424Z" fill="#0C77FF"/>
<path opacity="0.5" d="M235.65 306.384C236.65 308.554 234.78 311.444 231.57 312.854C228.36 314.264 225.01 313.644 224.06 311.474C223.11 309.304 224.93 306.424 228.13 305.014C231.33 303.604 234.7 304.224 235.65 306.384Z" fill="white"/>
<path opacity="0.5" d="M223.36 315.194C223.696 315.663 223.879 316.224 223.883 316.801C223.887 317.377 223.712 317.941 223.382 318.414C223.053 318.887 222.584 319.247 222.042 319.443C221.5 319.639 220.91 319.663 220.354 319.51C219.798 319.357 219.303 319.036 218.937 318.59C218.571 318.145 218.352 317.597 218.31 317.022C218.268 316.446 218.406 315.872 218.704 315.379C219.002 314.885 219.445 314.495 219.973 314.264C220.559 314.007 221.215 313.96 221.831 314.129C222.448 314.298 222.988 314.674 223.36 315.194Z" fill="white"/>
<path d="M171.93 272.504C171.934 276.183 171.135 279.818 169.589 283.157C168.043 286.495 165.788 289.456 162.98 291.834C161.124 293.365 159.625 295.283 158.588 297.454C157.552 299.626 157.003 301.998 156.98 304.404V345.634C156.98 347.174 155.98 348.724 153.93 349.894C152.736 350.56 151.443 351.033 150.1 351.294C147.758 351.774 145.343 351.774 143 351.294C141.665 351.03 140.379 350.557 139.19 349.894C137.19 348.724 136.14 347.174 136.14 345.634V304.284C136.108 301.9 135.554 299.552 134.517 297.404C133.481 295.257 131.987 293.363 130.14 291.854C126.872 289.102 124.351 285.57 122.81 281.586C121.269 277.601 120.758 273.292 121.325 269.057C121.891 264.822 123.517 260.799 126.051 257.359C128.585 253.919 131.945 251.174 135.822 249.378C139.698 247.582 143.965 246.793 148.228 247.083C152.49 247.374 156.611 248.735 160.207 251.04C163.804 253.346 166.762 256.521 168.805 260.273C170.849 264.025 171.914 268.232 171.9 272.504H171.93Z" fill="#0C77FF"/>
<path opacity="0.5" d="M171.93 272.504C171.934 276.183 171.135 279.818 169.589 283.157C168.043 286.495 165.788 289.456 162.98 291.834C161.124 293.365 159.625 295.283 158.588 297.454C157.552 299.626 157.003 301.998 156.98 304.404V345.634C156.98 347.174 155.98 348.724 153.93 349.894C152.736 350.56 151.443 351.033 150.1 351.294C147.758 351.774 145.343 351.774 143 351.294C141.665 351.03 140.379 350.557 139.19 349.894C137.19 348.724 136.14 347.174 136.14 345.634V304.284C136.108 301.9 135.554 299.552 134.517 297.404C133.481 295.257 131.987 293.363 130.14 291.854C126.872 289.102 124.351 285.57 122.81 281.586C121.269 277.601 120.758 273.292 121.325 269.057C121.891 264.822 123.517 260.799 126.051 257.359C128.585 253.919 131.945 251.174 135.822 249.378C139.698 247.582 143.965 246.793 148.228 247.083C152.49 247.374 156.611 248.735 160.207 251.04C163.804 253.346 166.762 256.521 168.805 260.273C170.849 264.025 171.914 268.232 171.9 272.504H171.93Z" fill="white"/>
<path d="M160.71 272.504C160.705 274.766 160.158 276.993 159.114 278.999C158.07 281.005 156.56 282.732 154.71 284.034C153.243 285.122 152.056 286.544 151.247 288.182C150.438 289.82 150.032 291.627 150.06 293.454V340.744C150.071 341.689 149.709 342.601 149.052 343.28C148.394 343.96 147.496 344.353 146.55 344.374H146.5C145.554 344.356 144.652 343.964 143.993 343.284C143.334 342.604 142.97 341.691 142.98 340.744V293.264C142.996 291.466 142.584 289.69 141.777 288.083C140.97 286.476 139.792 285.085 138.34 284.024C136.328 282.626 134.712 280.731 133.648 278.523C132.584 276.315 132.109 273.87 132.27 271.425C132.43 268.98 133.22 266.618 134.562 264.568C135.905 262.518 137.755 260.85 139.932 259.726C142.11 258.602 144.541 258.06 146.99 258.153C149.439 258.246 151.822 258.971 153.908 260.257C155.994 261.543 157.712 263.346 158.895 265.492C160.078 267.638 160.686 270.054 160.66 272.504H160.71Z" fill="#0C77FF"/>
<path opacity="0.7" d="M160.71 272.504C160.705 274.766 160.158 276.993 159.114 278.999C158.07 281.005 156.56 282.732 154.71 284.034C153.243 285.122 152.056 286.544 151.247 288.182C150.438 289.82 150.032 291.627 150.06 293.454V340.744C150.071 341.689 149.709 342.601 149.052 343.28C148.394 343.96 147.496 344.353 146.55 344.374H146.5C145.554 344.356 144.652 343.964 143.993 343.284C143.334 342.604 142.97 341.691 142.98 340.744V293.264C142.996 291.466 142.584 289.69 141.777 288.083C140.97 286.476 139.792 285.085 138.34 284.024C136.328 282.626 134.712 280.731 133.648 278.523C132.584 276.315 132.109 273.87 132.27 271.425C132.43 268.98 133.22 266.618 134.562 264.568C135.905 262.518 137.755 260.85 139.932 259.726C142.11 258.602 144.541 258.06 146.99 258.153C149.439 258.246 151.822 258.971 153.908 260.257C155.994 261.543 157.712 263.346 158.895 265.492C160.078 267.638 160.686 270.054 160.66 272.504H160.71Z" fill="white"/>
<path opacity="0.7" d="M157.141 288.504C160.797 288.504 163.761 285.54 163.761 281.884C163.761 278.228 160.797 275.264 157.141 275.264C153.484 275.264 150.521 278.228 150.521 281.884C150.521 285.54 153.484 288.504 157.141 288.504Z" fill="white"/>
<path opacity="0.7" d="M153.09 268.714C153.09 267.79 153.41 266.894 153.996 266.179C154.582 265.464 155.397 264.974 156.304 264.792C157.21 264.611 158.151 264.748 158.967 265.182C159.784 265.616 160.424 266.319 160.781 267.172C161.137 268.025 161.187 268.975 160.922 269.861C160.657 270.746 160.094 271.513 159.327 272.03C158.561 272.547 157.64 272.783 156.719 272.697C155.799 272.611 154.936 272.21 154.279 271.56C153.902 271.188 153.603 270.745 153.399 270.256C153.195 269.768 153.09 269.243 153.09 268.714Z" fill="white"/>
<path opacity="0.7" d="M145.37 262.264C145.37 261.868 145.487 261.482 145.707 261.153C145.927 260.824 146.239 260.568 146.605 260.416C146.97 260.265 147.372 260.225 147.76 260.302C148.148 260.38 148.505 260.57 148.784 260.85C149.064 261.129 149.255 261.486 149.332 261.874C149.409 262.262 149.369 262.664 149.218 263.029C149.067 263.395 148.81 263.707 148.481 263.927C148.152 264.147 147.766 264.264 147.37 264.264C146.84 264.264 146.331 264.053 145.956 263.678C145.581 263.303 145.37 262.794 145.37 262.264Z" fill="white"/>
<path opacity="0.7" d="M129.37 264.664C129.372 263.408 129.81 262.192 130.609 261.222C131.407 260.252 132.517 259.59 133.749 259.346C134.981 259.103 136.26 259.295 137.367 259.889C138.474 260.482 139.34 261.442 139.82 262.603C140.299 263.764 140.36 265.055 139.994 266.256C139.628 267.458 138.857 268.495 137.812 269.192C136.767 269.889 135.512 270.201 134.262 270.077C133.013 269.953 131.844 269.399 130.957 268.51C129.939 267.489 129.369 266.106 129.37 264.664Z" fill="white"/>
<path opacity="0.7" d="M128.5 274.494C128.5 274.998 128.65 275.491 128.93 275.911C129.21 276.33 129.608 276.657 130.074 276.85C130.54 277.043 131.053 277.093 131.547 276.995C132.042 276.897 132.496 276.654 132.853 276.297C133.21 275.94 133.453 275.486 133.551 274.991C133.649 274.497 133.599 273.984 133.406 273.518C133.213 273.052 132.886 272.654 132.467 272.374C132.047 272.094 131.554 271.944 131.05 271.944C130.374 271.944 129.725 272.213 129.247 272.691C128.769 273.169 128.5 273.818 128.5 274.494Z" fill="white"/>
<path opacity="0.7" d="M134.5 287.554C136.787 287.554 138.64 285.7 138.64 283.414C138.64 281.128 136.787 279.274 134.5 279.274C132.214 279.274 130.36 281.128 130.36 283.414C130.36 285.7 132.214 287.554 134.5 287.554Z" fill="white"/>
<path opacity="0.7" d="M140.24 289.664C140.24 288.99 140.44 288.33 140.815 287.77C141.19 287.209 141.722 286.772 142.345 286.514C142.968 286.255 143.654 286.188 144.315 286.32C144.977 286.451 145.585 286.776 146.061 287.253C146.538 287.73 146.863 288.337 146.995 288.999C147.126 289.66 147.059 290.346 146.801 290.969C146.543 291.592 146.105 292.125 145.545 292.499C144.984 292.874 144.325 293.074 143.65 293.074C142.746 293.074 141.878 292.715 141.239 292.075C140.599 291.436 140.24 290.568 140.24 289.664Z" fill="white"/>
<path opacity="0.7" d="M123.62 268.714C123.618 268.369 123.719 268.032 123.909 267.745C124.099 267.457 124.37 267.233 124.687 267.099C125.005 266.966 125.355 266.93 125.693 266.996C126.032 267.062 126.343 267.227 126.587 267.47C126.831 267.713 126.998 268.023 127.066 268.361C127.134 268.699 127.1 269.049 126.969 269.368C126.837 269.686 126.614 269.958 126.328 270.15C126.042 270.342 125.705 270.444 125.36 270.444C124.9 270.444 124.459 270.262 124.133 269.938C123.807 269.614 123.623 269.174 123.62 268.714Z" fill="white"/>
<path opacity="0.7" d="M161.43 261.524C161.43 261.071 161.564 260.628 161.816 260.252C162.067 259.875 162.425 259.582 162.843 259.408C163.262 259.235 163.722 259.19 164.166 259.278C164.611 259.366 165.019 259.584 165.339 259.905C165.659 260.225 165.877 260.633 165.966 261.077C166.054 261.521 166.009 261.982 165.835 262.4C165.662 262.819 165.369 263.176 164.992 263.428C164.615 263.68 164.173 263.814 163.72 263.814C163.419 263.814 163.121 263.755 162.843 263.64C162.566 263.525 162.313 263.356 162.1 263.143C161.888 262.931 161.719 262.678 161.604 262.4C161.489 262.122 161.43 261.825 161.43 261.524Z" fill="white"/>
<path opacity="0.7" d="M163.71 272.754C163.708 272.296 163.842 271.848 164.095 271.467C164.348 271.085 164.709 270.788 165.131 270.612C165.554 270.436 166.019 270.389 166.468 270.478C166.917 270.567 167.33 270.787 167.653 271.111C167.977 271.434 168.197 271.847 168.286 272.296C168.375 272.745 168.328 273.21 168.152 273.633C167.976 274.055 167.679 274.416 167.297 274.669C166.916 274.922 166.468 275.056 166.01 275.054C165.401 275.051 164.817 274.808 164.387 274.377C163.956 273.947 163.713 273.363 163.71 272.754Z" fill="white"/>
<path opacity="0.7" d="M139.84 274.614C139.842 274.082 140.029 273.567 140.368 273.158C140.707 272.748 141.178 272.468 141.7 272.367C142.222 272.265 142.763 272.347 143.231 272.6C143.7 272.852 144.066 273.259 144.268 273.751C144.47 274.243 144.495 274.79 144.339 275.299C144.183 275.807 143.855 276.246 143.412 276.54C142.969 276.834 142.438 276.966 141.909 276.913C141.379 276.859 140.885 276.624 140.51 276.247C140.079 275.813 139.838 275.226 139.84 274.614Z" fill="white"/>
<path d="M176.5 22.834C176.219 22.8273 175.943 22.9076 175.71 23.064C174.625 24.2857 173.622 25.5785 172.71 26.934C170.55 30.194 166.04 36.624 164.45 43.424C164.275 44.1846 164.195 44.9638 164.21 45.744C161.46 93.834 163.37 128.684 164.12 182.914C164.12 184.814 165.79 186.754 169.25 187.854C171.88 188.693 174.698 188.749 177.36 188.014C180.86 187.014 182.64 185.184 182.68 183.284C185.74 129.124 188.84 94.374 187.97 46.204C188.024 45.4279 187.977 44.648 187.83 43.884C186.51 37.024 182.25 30.424 180.22 27.084C179.346 25.6855 178.377 24.349 177.32 23.084C177.082 22.9124 176.793 22.8245 176.5 22.834Z" fill="#455A64"/>
<path d="M187.93 46.584C187.142 47.5908 186.137 48.4075 184.99 48.974C179.89 51.624 171.83 51.284 166.99 48.204C165.848 47.5153 164.885 46.5661 164.18 45.434C164.18 45.524 164.18 45.614 164.18 45.714L163.94 50.094C164.643 51.2659 165.626 52.2452 166.8 52.944C171.65 56.024 179.71 56.374 184.8 53.714C186.104 53.0879 187.213 52.1203 188.01 50.914C187.98 49.484 187.96 48.034 187.93 46.584Z" fill="#0C77FF"/>
<path d="M175.71 23.034C174.625 24.2557 173.622 25.5486 172.71 26.904C170.55 30.164 166.04 36.594 164.45 43.394C164.275 44.1546 164.195 44.9338 164.21 45.714C161.46 93.804 163.37 128.654 164.12 182.884C164.12 184.584 165.45 186.304 168.21 187.444C168.4 159.704 168.82 91.624 168.75 70.954C168.62 44.834 174.6 26.664 176.5 22.834C176.222 22.8196 175.947 22.8893 175.71 23.034Z" fill="#37474F"/>
<path d="M129.73 194.834C125.15 209.664 120.49 224.474 115.53 239.184C114.65 241.754 115.77 245.074 118.22 247.184C126.128 253.866 136.199 257.439 146.55 257.234C156.927 257.23 166.966 253.545 174.88 246.834C177.32 244.714 178.44 241.454 177.57 238.944C172.52 224.464 167.88 209.854 163.37 195.204L129.73 194.834Z" fill="#37474F"/>
<path d="M146.55 245.674C136.24 246.014 124.63 242.104 116.9 235.134L115.5 239.204C114.62 241.774 115.74 245.094 118.19 247.204C126.11 253.865 136.173 257.435 146.52 257.254C156.906 257.231 166.95 253.541 174.88 246.834C177.32 244.714 178.44 241.454 177.57 238.944C177.02 237.364 176.75 236.564 176.2 234.944C168.06 242.124 157.22 245.324 146.55 245.674Z" fill="#455A64"/>
<path d="M174.88 246.834C166.948 253.55 156.894 257.242 146.5 257.254H144.41C143.73 257.254 143.05 257.194 142.41 257.144L141.41 257.044L139.88 256.874C139.543 256.853 139.208 256.803 138.88 256.724L137.88 256.554L136.27 256.244L135.98 256.174C135.36 256.034 134.75 255.874 134.16 255.714C133.57 255.554 132.71 255.294 132.02 255.064L130.82 254.634C130.29 254.454 129.82 254.244 129.28 254.034C128.28 253.634 127.36 253.204 126.49 252.774L125.83 252.434C125.56 252.304 125.3 252.154 125.07 252.024C124.84 251.894 124.34 251.614 124 251.414L122.89 250.734L121.84 250.054C121.51 249.834 121.2 249.604 120.84 249.384C121.57 245.454 121.94 243.474 122.67 239.474C124.904 240.809 127.258 241.934 129.7 242.834C129.44 244.764 129.11 246.284 129.18 246.564C131.9 256.524 155.72 258.294 174.88 246.834Z" fill="#263238"/>
<path d="M173.87 53.504C173.955 51.4914 173.79 49.4761 173.38 47.504C169.63 29.914 158.7 14.244 152.96 5.994C151.719 4.18013 150.247 2.5362 148.58 1.10399C147.981 0.693374 147.271 0.473633 146.545 0.473633C145.818 0.473633 145.109 0.693374 144.51 1.10399C142.814 2.50285 141.34 4.15174 140.14 5.994C134.76 14.484 123.46 29.914 119.71 47.504C119.3 49.4761 119.135 51.4914 119.22 53.504L122.63 209.674C122.63 214.564 127.12 219.464 136.09 222.134C142.917 224.154 150.183 224.154 157.01 222.134C166.01 219.464 170.46 214.564 170.46 209.674L173.87 53.504Z" fill="#0C77FF"/>
<path opacity="0.5" d="M163.5 65.774C163.5 80.374 162.4 161.424 161.57 220.404C167.48 217.624 170.44 213.644 170.44 209.674L173.85 53.504C173.935 51.4914 173.77 49.4761 173.36 47.504C169.61 29.914 158.68 14.244 152.94 5.994C152.46 5.314 151.88 4.56399 151.29 3.85399C158.91 18.264 163.5 42.364 163.5 65.774Z" fill="white"/>
<path opacity="0.1" d="M157.01 222.134C166.01 219.464 170.46 214.564 170.46 209.674L173.2 84.234C172.477 82.9884 171.6 81.8393 170.59 80.814C170.036 80.4304 169.378 80.2248 168.705 80.2248C168.031 80.2248 167.373 80.4304 166.82 80.814C165.91 81.444 163.72 85.064 162.67 86.624C157.49 94.254 147.31 108.674 143.84 124.974C143.462 126.795 143.307 128.655 143.38 130.514L146.5 221.744C146.502 222.386 146.589 223.025 146.76 223.644C150.23 223.624 153.681 223.116 157.01 222.134Z" fill="black"/>
<path opacity="0.2" d="M148.58 1.134C147.981 0.723381 147.271 0.503632 146.545 0.503632C145.818 0.503632 145.109 0.723381 144.51 1.134C142.814 2.53287 141.34 4.18175 140.14 6.02399C134.76 14.514 123.46 29.944 119.71 47.534C119.3 49.5061 119.135 51.5214 119.22 53.534L122.63 209.704C122.63 214.014 126.12 218.324 133.07 221.114V130.114C133.07 78.314 134.54 43.294 136.82 30.424C139.1 17.554 146.02 -0.236005 148.58 1.134Z" fill="black"/>
<path d="M125.5 57.834C137.02 64.484 155.71 64.484 167.23 57.834C169.868 56.4006 172.143 54.3824 173.88 51.934C173.854 50.4548 173.686 48.9814 173.38 47.534C173.22 46.764 173.04 46.014 172.85 45.254C171.249 47.0734 169.348 48.6055 167.23 49.784C155.71 56.434 137.02 56.434 125.5 49.784C123.511 48.6684 121.709 47.2478 120.16 45.574C120 46.224 119.85 46.874 119.71 47.574C119.379 49.1931 119.211 50.8414 119.21 52.494C120.916 54.6884 123.058 56.5064 125.5 57.834Z" fill="#455A64"/>
<path d="M119.39 49.534C119.401 49.7431 119.378 49.9527 119.32 50.154C119.25 50.364 119.32 50.754 119.26 51.064V52.454C120.947 54.6576 123.072 56.4891 125.5 57.834C128.253 59.3845 131.203 60.5551 134.27 61.314C134.39 58.514 134.52 55.864 134.66 53.364C131.458 52.6168 128.375 51.4288 125.5 49.834C123.511 48.7183 121.709 47.2978 120.16 45.624C120 46.274 119.85 46.924 119.71 47.624C119.62 48.064 119.54 48.504 119.48 48.954C119.438 49.1453 119.408 49.339 119.39 49.534Z" fill="#37474F"/>
<path d="M193.5 243.894H184.78C183.54 251.424 187.54 257.204 189.14 257.204C190.74 257.204 194.7 251.424 193.5 243.894Z" fill="#0C77FF"/>
<path opacity="0.7" d="M193.5 243.894H184.78C183.54 251.424 187.54 257.204 189.14 257.204C190.74 257.204 194.7 251.424 193.5 243.894Z" fill="white"/>
<path d="M189.1 243.894H190.59C191.275 245.109 191.558 246.509 191.4 247.894C191.22 249.894 190 252.564 189.1 252.564C188.2 252.564 186.98 249.924 186.8 247.894C186.642 246.509 186.926 245.109 187.61 243.894H189.1Z" fill="white"/>
<path d="M193.43 230.354L184.43 233.534L183.72 236.534C183.694 237.161 183.83 237.784 184.115 238.343C184.401 238.902 184.826 239.378 185.35 239.724C185.771 240.034 186.232 240.286 186.72 240.474C188.399 241.109 190.251 241.109 191.93 240.474C192.406 240.286 192.857 240.037 193.27 239.734C193.795 239.389 194.221 238.914 194.507 238.355C194.793 237.795 194.928 237.171 194.9 236.544L193.43 230.354Z" fill="#0C77FF"/>
<path opacity="0.25" d="M193.43 230.354L184.43 233.534L183.72 236.534C183.694 237.161 183.83 237.784 184.115 238.343C184.401 238.902 184.826 239.378 185.35 239.724C185.771 240.034 186.232 240.286 186.72 240.474C188.399 241.109 190.251 241.109 191.93 240.474C192.406 240.286 192.857 240.037 193.27 239.734C193.795 239.389 194.221 238.914 194.507 238.355C194.793 237.795 194.928 237.171 194.9 236.544L193.43 230.354Z" fill="black"/>
<path d="M195.09 237.444L195.39 238.714C195.388 239.372 195.223 240.019 194.911 240.598C194.599 241.177 194.148 241.67 193.6 242.034C193.15 242.372 192.655 242.644 192.13 242.844C190.309 243.531 188.301 243.531 186.48 242.844C185.945 242.641 185.44 242.365 184.98 242.024C184.432 241.658 183.983 241.163 183.672 240.582C183.362 240.001 183.199 239.353 183.2 238.694L182.38 242.214C182.413 242.883 182.613 243.533 182.963 244.104C183.312 244.675 183.799 245.15 184.38 245.484C184.925 245.846 185.517 246.132 186.14 246.334C188.183 247.004 190.387 247.004 192.43 246.334C193.04 246.124 193.621 245.838 194.16 245.484C194.74 245.15 195.228 244.675 195.577 244.104C195.927 243.533 196.127 242.883 196.16 242.214L195.09 237.444Z" fill="#0C77FF"/>
<path opacity="0.25" d="M195.09 237.444L195.39 238.714C195.388 239.372 195.223 240.019 194.911 240.598C194.599 241.177 194.148 241.67 193.6 242.034C193.15 242.372 192.655 242.644 192.13 242.844C190.309 243.531 188.301 243.531 186.48 242.844C185.945 242.641 185.44 242.365 184.98 242.024C184.432 241.658 183.983 241.163 183.672 240.582C183.362 240.001 183.199 239.353 183.2 238.694L182.38 242.214C182.413 242.883 182.613 243.533 182.963 244.104C183.312 244.675 183.799 245.15 184.38 245.484C184.925 245.846 185.517 246.132 186.14 246.334C188.183 247.004 190.387 247.004 192.43 246.334C193.04 246.124 193.621 245.838 194.16 245.484C194.74 245.15 195.228 244.675 195.577 244.104C195.927 243.533 196.127 242.883 196.16 242.214L195.09 237.444Z" fill="black"/>
<path d="M195.09 237.424L195.02 237.124L194.88 236.534C194.909 237.161 194.773 237.785 194.487 238.345C194.202 238.904 193.775 239.379 193.25 239.724C192.837 240.027 192.387 240.276 191.91 240.464C190.232 241.099 188.379 241.099 186.7 240.464C186.212 240.276 185.751 240.024 185.33 239.714C184.806 239.368 184.381 238.892 184.096 238.333C183.81 237.774 183.674 237.151 183.7 236.524L183.2 238.694C183.2 239.353 183.362 240.001 183.673 240.582C183.983 241.163 184.432 241.658 184.98 242.024C185.44 242.365 185.945 242.641 186.48 242.844C188.301 243.531 190.31 243.531 192.13 242.844C192.656 242.644 193.151 242.372 193.6 242.034C194.149 241.67 194.599 241.177 194.911 240.598C195.223 240.019 195.388 239.372 195.39 238.714L195.09 237.424Z" fill="#455A64"/>
<path opacity="0.15" d="M194.19 233.584L193.43 230.354L184.43 233.534L183.72 236.534L183.52 237.424L183.22 238.704L182.64 241.154C187.76 239.694 191.89 236.974 194.19 233.584Z" fill="black"/>
<path d="M162.65 243.894H153.93C152.69 251.424 156.69 257.204 158.29 257.204C159.89 257.204 163.9 251.424 162.65 243.894Z" fill="#0C77FF"/>
<path opacity="0.7" d="M162.65 243.894H153.93C152.69 251.424 156.69 257.204 158.29 257.204C159.89 257.204 163.9 251.424 162.65 243.894Z" fill="white"/>
<path d="M158.29 243.894H159.79C160.474 245.109 160.758 246.509 160.6 247.894C160.42 249.894 159.19 252.564 158.29 252.564C157.39 252.564 156.17 249.924 155.99 247.894C155.832 246.509 156.115 245.109 156.8 243.894H158.29Z" fill="white"/>
<path d="M162.62 230.354H154.37L152.9 236.534C152.869 237.161 153.003 237.784 153.287 238.344C153.571 238.903 153.996 239.379 154.52 239.724C154.941 240.034 155.402 240.286 155.89 240.474C157.568 241.109 159.421 241.109 161.1 240.474C161.577 240.288 162.028 240.039 162.44 239.734C162.965 239.389 163.391 238.914 163.677 238.355C163.963 237.795 164.098 237.171 164.07 236.544L162.62 230.354Z" fill="#0C77FF"/>
<path opacity="0.25" d="M162.62 230.354H154.37L152.9 236.534C152.869 237.161 153.003 237.784 153.287 238.344C153.571 238.903 153.996 239.379 154.52 239.724C154.941 240.034 155.402 240.286 155.89 240.474C157.568 241.109 159.421 241.109 161.1 240.474C161.577 240.288 162.028 240.039 162.44 239.734C162.965 239.389 163.391 238.914 163.677 238.355C163.963 237.795 164.098 237.171 164.07 236.544L162.62 230.354Z" fill="black"/>
<path d="M164.21 237.124L164.28 237.424L164.58 238.714C164.578 239.372 164.413 240.019 164.101 240.598C163.789 241.177 163.339 241.67 162.79 242.034C162.341 242.372 161.846 242.644 161.32 242.844C159.5 243.531 157.491 243.531 155.67 242.844C155.136 242.639 154.632 242.363 154.17 242.024C153.622 241.658 153.173 241.163 152.863 240.582C152.552 240.001 152.39 239.353 152.39 238.694L151.57 242.214C151.603 242.883 151.804 243.533 152.153 244.104C152.503 244.675 152.99 245.15 153.57 245.484C154.115 245.846 154.708 246.132 155.33 246.334C157.373 247.004 159.577 247.004 161.62 246.334C162.231 246.126 162.812 245.84 163.35 245.484C163.931 245.15 164.418 244.675 164.768 244.104C165.117 243.533 165.317 242.883 165.35 242.214L164.21 237.124Z" fill="#0C77FF"/>
<path opacity="0.25" d="M164.21 237.124L164.28 237.424L164.58 238.714C164.578 239.372 164.413 240.019 164.101 240.598C163.789 241.177 163.339 241.67 162.79 242.034C162.341 242.372 161.846 242.644 161.32 242.844C159.5 243.531 157.491 243.531 155.67 242.844C155.136 242.639 154.632 242.363 154.17 242.024C153.622 241.658 153.173 241.163 152.863 240.582C152.552 240.001 152.39 239.353 152.39 238.694L151.57 242.214C151.603 242.883 151.804 243.533 152.153 244.104C152.503 244.675 152.99 245.15 153.57 245.484C154.115 245.846 154.708 246.132 155.33 246.334C157.373 247.004 159.577 247.004 161.62 246.334C162.231 246.126 162.812 245.84 163.35 245.484C163.931 245.15 164.418 244.675 164.768 244.104C165.117 243.533 165.317 242.883 165.35 242.214L164.21 237.124Z" fill="black"/>
<path d="M164.28 237.424L164.21 237.124L164.07 236.534C164.098 237.161 163.963 237.785 163.677 238.345C163.391 238.904 162.965 239.379 162.44 239.724C162.028 240.029 161.577 240.277 161.1 240.464C159.421 241.099 157.568 241.099 155.89 240.464C155.402 240.276 154.941 240.024 154.52 239.714C153.996 239.369 153.571 238.893 153.287 238.334C153.003 237.774 152.869 237.151 152.9 236.524L152.39 238.694C152.389 239.353 152.551 240.001 152.862 240.582C153.173 241.163 153.622 241.658 154.17 242.024C154.631 242.363 155.135 242.639 155.67 242.844C157.49 243.531 159.499 243.531 161.32 242.844C161.845 242.644 162.34 242.372 162.79 242.034C163.338 241.67 163.788 241.177 164.101 240.598C164.413 240.019 164.577 239.372 164.58 238.714L164.28 237.424Z" fill="#455A64"/>
<path opacity="0.15" d="M154.37 230.354L153.61 233.554C155.89 236.954 160.02 239.674 165.15 241.144L164.21 237.144L164.07 236.554L162.62 230.374L154.37 230.354Z" fill="black"/>
<path d="M182.38 249.384L173.89 247.184L165.4 249.384C164.763 253.251 164.794 257.198 165.49 261.054C166.6 268.184 171.57 275.314 173.89 275.314C176.21 275.314 181.17 268.184 182.28 261.054C182.976 257.198 183.01 253.251 182.38 249.384Z" fill="#0C77FF"/>
<path opacity="0.7" d="M182.38 249.384L173.89 247.184L165.4 249.384C164.763 253.251 164.794 257.198 165.49 261.054C166.6 268.184 171.57 275.314 173.89 275.314C176.21 275.314 181.17 268.184 182.28 261.054C182.976 257.198 183.01 253.251 182.38 249.384Z" fill="white"/>
<path d="M179.44 250.414H167.82C166.16 260.414 171.49 268.144 173.63 268.144C175.77 268.144 181.1 260.444 179.44 250.414Z" fill="#0C77FF"/>
<path d="M173.63 250.414H175.63C176.554 252.039 176.933 253.918 176.71 255.774C176.47 258.474 174.84 261.994 173.64 261.994C172.44 261.994 170.81 258.474 170.57 255.774C170.353 253.918 170.732 252.041 171.65 250.414H173.65" fill="white"/>
<path d="M181.34 239.884L180.4 235.884H167.4L166.47 239.884C166.432 240.72 166.613 241.551 166.993 242.296C167.374 243.041 167.941 243.674 168.64 244.134C169.2 244.55 169.816 244.887 170.47 245.134C172.705 245.984 175.174 245.984 177.41 245.134C178.047 244.885 178.646 244.549 179.19 244.134C179.885 243.672 180.449 243.038 180.826 242.293C181.203 241.548 181.38 240.718 181.34 239.884Z" fill="#0C77FF"/>
<path d="M181.5 240.674L181.59 241.064L181.99 242.784C181.992 243.662 181.777 244.527 181.363 245.302C180.95 246.077 180.351 246.737 179.62 247.224C179.005 247.67 178.332 248.03 177.62 248.294C175.194 249.209 172.517 249.209 170.09 248.294C169.377 248.023 168.704 247.656 168.09 247.204C167.357 246.716 166.757 246.054 166.341 245.278C165.926 244.501 165.709 243.634 165.71 242.754L164.62 247.444C164.669 248.339 164.942 249.207 165.414 249.969C165.885 250.73 166.541 251.361 167.32 251.804C168.046 252.293 168.837 252.676 169.67 252.944C172.391 253.844 175.329 253.844 178.05 252.944C178.865 252.667 179.641 252.287 180.36 251.814C181.139 251.371 181.795 250.74 182.267 249.979C182.738 249.217 183.011 248.349 183.06 247.454L181.5 240.674Z" fill="#0C77FF"/>
<path d="M181.61 241.064L181.52 240.674L181.34 239.884C181.377 240.721 181.196 241.553 180.813 242.298C180.431 243.043 179.861 243.676 179.16 244.134C178.616 244.549 178.017 244.885 177.38 245.134C175.145 245.984 172.675 245.984 170.44 245.134C169.786 244.887 169.17 244.55 168.61 244.134C167.911 243.674 167.344 243.041 166.963 242.296C166.583 241.551 166.402 240.72 166.44 239.884L165.76 242.774C165.759 243.654 165.976 244.521 166.391 245.298C166.806 246.074 167.407 246.736 168.14 247.224C168.754 247.676 169.427 248.043 170.14 248.314C172.566 249.229 175.243 249.229 177.67 248.314C178.382 248.05 179.055 247.69 179.67 247.244C180.401 246.757 180.999 246.097 181.413 245.322C181.827 244.547 182.042 243.682 182.04 242.804L181.61 241.064Z" fill="#455A64"/>
<path opacity="0.15" d="M173.87 242.344C176.505 242.35 179.131 242.038 181.69 241.414L181.61 241.064L181.52 240.674L181.34 239.884L180.4 235.884H167.4L166.47 239.884L166.11 241.424C168.651 242.037 171.256 242.346 173.87 242.344Z" fill="black"/>
<path d="M184.25 213.404L220.76 199.964C220.807 198.399 220.753 196.832 220.6 195.274C220.578 194.804 220.524 194.337 220.44 193.874C220.38 193.414 220.3 192.984 220.21 192.564C220.12 192.144 220.01 191.684 219.89 191.274C219.83 191.054 219.76 190.854 219.69 190.644C219.62 190.434 219.6 190.324 219.54 190.174C218.748 187.647 217.039 185.507 214.75 184.174L210.07 181.484L209.57 181.184C208.086 180.384 206.465 179.871 204.79 179.674C201.224 179.27 197.72 178.427 194.36 177.164C193.338 176.322 192.448 175.331 191.72 174.224C188.16 168.784 187.26 157.094 187.49 151.284L186.49 171.104C182.99 165.604 182.11 154.104 182.33 148.284L179.11 210.414L184.55 208.414V208.574L184.25 213.404Z" fill="#0C77FF"/>
<path d="M220.76 199.964L184.25 213.404L184.51 208.574V208.414L186.5 171.104L187.5 151.284C187.27 157.094 188.17 168.784 191.73 174.224C192.457 175.331 193.347 176.322 194.37 177.164C197.97 180.164 203.37 181.764 209.98 182.664C210.655 182.748 211.323 182.879 211.98 183.054C212.952 183.313 213.889 183.689 214.77 184.174C217.059 185.507 218.767 187.647 219.56 190.174C219.62 190.324 219.66 190.484 219.71 190.644C219.76 190.804 219.85 191.054 219.91 191.274C220.03 191.684 220.13 192.114 220.23 192.564C220.33 193.014 220.39 193.424 220.46 193.874C220.53 194.324 220.58 194.794 220.62 195.274C220.766 196.833 220.813 198.399 220.76 199.964Z" fill="#0C77FF"/>
<path opacity="0.35" d="M214.74 184.174C213.859 183.689 212.922 183.313 211.95 183.054C211.293 182.879 210.625 182.748 209.95 182.664C203.3 181.764 197.95 180.184 194.34 177.164C197.7 178.427 201.203 179.27 204.77 179.674C206.444 179.871 208.066 180.384 209.55 181.184L210.05 181.484L214.74 184.174Z" fill="black"/>
<path d="M184.8 202.974L219.55 190.174C220.106 191.829 220.461 193.545 220.61 195.284L184.5 208.574L184.8 202.974Z" fill="#455A64"/>
<path d="M199.21 134.144C199.286 132.286 199.135 130.426 198.76 128.604C195.28 112.304 185.54 98.924 179.92 90.254C178.92 88.674 176.69 85.074 175.77 84.444C175.219 84.0593 174.563 83.8533 173.89 83.854C173.215 83.8545 172.556 84.0603 172 84.444C171.09 85.074 168.91 88.694 167.85 90.254C162.67 97.884 152.49 112.304 149.02 128.604C148.642 130.425 148.488 132.285 148.56 134.144L151.73 225.374C151.73 229.914 155.88 234.454 164.19 236.924C170.518 238.794 177.252 238.794 183.58 236.924C191.89 234.454 196.05 229.924 196.05 225.374L199.21 134.144Z" fill="#0C77FF"/>
<path opacity="0.5" d="M199.21 134.144C199.286 132.286 199.135 130.426 198.76 128.604C195.28 112.304 185.54 98.924 179.92 90.254C178.92 88.674 176.69 85.074 175.77 84.444C175.219 84.0593 174.563 83.8533 173.89 83.854C173.215 83.8545 172.556 84.0603 172 84.444C171.09 85.074 168.91 88.694 167.85 90.254C162.67 97.884 152.49 112.304 149.02 128.604C148.642 130.425 148.488 132.285 148.56 134.144L151.73 225.374C151.73 229.914 155.88 234.454 164.19 236.924C170.518 238.794 177.252 238.794 183.58 236.924C191.89 234.454 196.05 229.924 196.05 225.374L199.21 134.144Z" fill="white"/>
<path opacity="0.5" d="M196.05 225.374L199.21 134.144C199.281 132.286 199.13 130.426 198.76 128.604C195.28 112.304 185.54 98.924 179.92 90.254L179.07 88.924C183.68 100.644 190.97 119.424 191.44 145.714C191.72 161.234 190.61 202.844 189.66 234.354C193.91 231.834 196.05 228.624 196.05 225.374Z" fill="white"/>
<path d="M167.85 90.254C165.95 93.054 163.36 96.794 160.69 101.194C163.32 102.954 166.87 105.654 173.89 105.654C178.657 105.805 183.321 104.248 187.04 101.264C184.46 97.054 181.93 93.344 179.92 90.264C178.92 88.684 176.69 85.084 175.77 84.454C175.219 84.0693 174.563 83.8633 173.89 83.864C173.215 83.8645 172.556 84.0702 172 84.454C171.09 85.074 168.91 88.694 167.85 90.254Z" fill="#37474F"/>
<path d="M179.07 88.924C180.62 92.844 182.46 97.584 184.25 103.104C185.25 102.504 186.19 101.864 187.04 101.264C185.04 97.984 183.04 95.034 181.34 92.424L179.92 90.254L179.35 89.354L179.07 88.924Z" fill="#455A64"/>
<path d="M166.09 92.834L165.54 93.654L165.01 94.454C164.68 94.934 164.35 95.454 164.01 95.954L163.52 96.694L162.88 97.694C162.71 97.944 162.54 98.204 162.38 98.474L161.72 99.474C161.38 100.024 161.03 100.574 160.72 101.144C162.223 102.226 163.823 103.167 165.5 103.954C169.11 93.774 173.37 83.504 175.5 84.224C175.268 84.0976 175.023 83.997 174.77 83.924H174.69C174.436 83.8518 174.174 83.8148 173.91 83.814C173.234 83.8145 172.575 84.0203 172.02 84.404C171.11 85.034 168.93 88.654 167.87 90.214L166.66 91.994L166.09 92.834Z" fill="#263238"/>
<path d="M195.21 117.104C195.72 118.919 195.497 120.861 194.59 122.514C193.359 124.685 191.53 126.455 189.32 127.614C186.683 129.086 183.816 130.1 180.84 130.614C177.37 131.244 174.37 134.034 174.22 137.554L174.16 139.004C174.01 142.534 176.76 145.434 180.25 144.914C184.271 144.366 188.156 143.081 191.71 141.124C196.71 138.234 199.16 134.444 199.08 130.664C199.068 129.776 198.916 128.895 198.63 128.054C197.778 124.32 196.634 120.659 195.21 117.104Z" fill="#37474F"/>
<path d="M199.08 130.704C199 130.004 198.9 129.304 198.76 128.604C198.66 128.154 198.54 127.714 198.44 127.264C198.28 126.594 198.12 125.924 197.94 125.264L197.73 124.534C197.53 123.834 197.33 123.134 197.12 122.444C196.91 121.754 196.68 121.144 196.46 120.504C196.37 120.254 196.29 119.994 196.21 119.754C195.89 118.874 195.56 118.014 195.21 117.164C195.701 118.962 195.475 120.88 194.58 122.514C193.476 124.476 191.867 126.105 189.92 127.234C190.57 131.644 191.04 136.334 191.28 141.314L191.7 141.104C196.67 138.234 199.13 134.464 199.08 130.704Z" fill="#455A64"/>
<path d="M202.07 234.434C202.07 232.354 197.34 208.764 190.47 202.774C190.133 202.472 189.719 202.27 189.274 202.19C188.829 202.111 188.37 202.157 187.95 202.324C187.078 202.741 186.32 203.362 185.74 204.134C181.303 209.804 178.949 216.826 179.07 224.024V234.944L188.67 238.644C192.332 239.885 196.335 239.629 199.81 237.934C200.463 237.606 201.016 237.107 201.41 236.491C201.804 235.876 202.025 235.165 202.05 234.434H202.07Z" fill="#0C77FF"/>
<path d="M198.94 232.024C199.548 231.713 200.065 231.249 200.439 230.677C200.812 230.105 201.03 229.446 201.07 228.764C200.84 227.684 200.56 226.494 200.24 225.234C200.218 225.906 200.015 226.56 199.653 227.127C199.29 227.694 198.781 228.152 198.18 228.454C194.979 230.014 191.292 230.248 187.92 229.104L179.08 225.704V229.124L188.29 232.664C191.786 233.859 195.612 233.629 198.94 232.024Z" fill="#455A64"/>
<path opacity="0.25" d="M187.98 202.324C187.096 202.734 186.326 203.356 185.74 204.134C181.303 209.808 178.949 216.833 179.07 224.034V234.944L188.67 238.644C189.565 238.97 190.494 239.192 191.44 239.304C189.71 228.764 186.09 205.114 187.98 202.324Z" fill="black"/>
<path d="M190.5 233.244C190.32 232.084 190.13 230.874 189.95 229.634C189.268 229.533 188.598 229.362 187.95 229.124L179.11 225.724V229.144L188.32 232.684C189.026 232.944 189.757 233.132 190.5 233.244Z" fill="#37474F"/>
<path d="M123.72 233.674L115.23 231.474L106.74 233.674C106.111 237.541 106.144 241.488 106.84 245.344C107.95 252.464 112.91 259.594 115.23 259.594C117.55 259.594 122.52 252.464 123.63 245.344C124.327 241.488 124.357 237.541 123.72 233.674Z" fill="#0C77FF"/>
<path opacity="0.7" d="M123.72 233.674L115.23 231.474L106.74 233.674C106.111 237.541 106.144 241.488 106.84 245.344C107.95 252.464 112.91 259.594 115.23 259.594C117.55 259.594 122.52 252.464 123.63 245.344C124.327 241.488 124.357 237.541 123.72 233.674Z" fill="white"/>
<path d="M120.79 234.694H109.17C107.51 244.694 112.84 252.434 114.98 252.434C117.12 252.434 122.5 244.734 120.79 234.694Z" fill="#0C77FF"/>
<path d="M114.98 234.694H116.98C117.896 236.322 118.274 238.198 118.06 240.054C117.82 242.764 116.19 246.284 114.99 246.284C113.79 246.284 112.16 242.764 111.92 240.054C111.699 238.198 112.078 236.32 113 234.694H115" fill="white"/>
<path d="M122.68 224.174L121.75 220.174H108.75L107.81 224.174C107.775 225.01 107.958 225.841 108.34 226.586C108.722 227.331 109.291 227.964 109.99 228.424C110.549 228.837 111.161 229.173 111.81 229.424C114.049 230.269 116.52 230.269 118.76 229.424C119.395 229.171 119.993 228.835 120.54 228.424C121.234 227.961 121.796 227.326 122.171 226.581C122.546 225.837 122.721 225.007 122.68 224.174Z" fill="#0C77FF"/>
<path d="M122.87 224.964L122.96 225.354L123.36 227.074C123.359 227.951 123.141 228.815 122.726 229.588C122.311 230.361 121.711 231.019 120.98 231.504C120.363 231.95 119.691 232.313 118.98 232.584C116.553 233.499 113.876 233.499 111.45 232.584C110.735 232.317 110.061 231.95 109.45 231.494C108.716 231.009 108.115 230.349 107.7 229.574C107.284 228.799 107.068 227.933 107.07 227.054L105.97 231.744C106.019 232.639 106.292 233.507 106.763 234.269C107.235 235.03 107.891 235.661 108.67 236.104C109.399 236.587 110.189 236.97 111.02 237.244C113.745 238.139 116.685 238.139 119.41 237.244C120.222 236.969 120.996 236.589 121.71 236.114C122.49 235.673 123.147 235.042 123.619 234.28C124.091 233.518 124.363 232.649 124.41 231.754L122.87 224.964Z" fill="#0C77FF"/>
<path d="M122.96 225.354L122.87 224.964L122.68 224.174C122.719 225.01 122.539 225.841 122.158 226.586C121.778 227.332 121.21 227.965 120.51 228.424C119.964 228.835 119.365 229.171 118.73 229.424C116.491 230.269 114.02 230.269 111.78 229.424C111.132 229.173 110.52 228.837 109.96 228.424C109.261 227.964 108.693 227.331 108.311 226.586C107.929 225.841 107.746 225.01 107.78 224.174L107.11 227.064C107.108 227.943 107.325 228.809 107.74 229.584C108.156 230.359 108.757 231.019 109.49 231.504C110.102 231.96 110.776 232.327 111.49 232.594C113.917 233.509 116.594 233.509 119.02 232.594C119.731 232.323 120.404 231.96 121.02 231.514C121.752 231.029 122.352 230.371 122.767 229.598C123.182 228.825 123.4 227.961 123.4 227.084L122.96 225.354Z" fill="#455A64"/>
<path opacity="0.15" d="M115.23 228.364C117.99 228.364 121.95 227.484 123.04 225.704L122.96 225.354L122.87 224.964L122.68 224.174L121.75 220.174H108.75L107.81 224.174L107.45 225.714C108.18 227.564 112.5 228.364 115.23 228.364Z" fill="black"/>
<path d="M112.15 59.534C112.433 59.532 112.711 59.6118 112.95 59.764C114.052 60.9882 115.071 62.2844 116 63.644C118.15 66.894 122.67 73.324 124.26 80.124C124.436 80.8842 124.514 81.664 124.49 82.444C127.25 130.544 125.34 165.384 124.59 219.624C124.59 221.524 122.92 223.454 119.46 224.564C118.149 224.98 116.785 225.206 115.41 225.234C114.04 225.254 112.673 225.083 111.35 224.724C107.84 223.724 106.06 221.884 106.03 219.984C102.96 165.824 99.87 131.074 100.73 82.914C100.685 82.1341 100.735 81.3517 100.88 80.584C102.2 73.724 106.46 67.124 108.48 63.784C109.359 62.3895 110.328 61.0534 111.38 59.784C111.613 59.6241 111.887 59.5339 112.17 59.524L112.15 59.534Z" fill="#455A64"/>
<path d="M119.89 224.404C123.05 223.284 124.62 221.404 124.59 219.624C125.34 165.384 127.25 130.544 124.49 82.444C124.514 81.664 124.437 80.8842 124.26 80.124C122.67 73.324 118.15 66.894 116 63.644C115.071 62.2844 114.052 60.9882 112.95 59.764C116.62 68.484 118.54 83.184 119.21 109.574C119.69 128.144 119.84 189.604 119.89 224.404Z" fill="#37474F"/>
<path d="M121.6 90.034C122.91 89.3519 123.999 88.3114 124.74 87.034C124.67 85.604 124.59 84.164 124.51 82.704C123.76 83.7951 122.763 84.693 121.6 85.324C116.6 88.194 108.6 88.194 103.6 85.324C102.472 84.7002 101.499 83.8323 100.75 82.784V82.944C100.75 84.464 100.75 85.944 100.68 87.454C101.431 88.5447 102.432 89.4397 103.6 90.064C108.56 92.914 116.63 92.914 121.6 90.034Z" fill="#0C77FF"/>
<path d="M104.84 96.944C105.42 97.3172 105.904 97.8226 106.252 98.4187C106.6 99.0149 106.801 99.6849 106.84 100.374C106.84 101.634 105.95 102.144 104.84 101.514C104.26 101.14 103.777 100.634 103.43 100.038C103.082 99.4421 102.88 98.7726 102.84 98.084C102.86 96.834 103.75 96.314 104.84 96.944Z" fill="#0C77FF"/>
<path d="M104.76 105.064C105.307 105.419 105.763 105.899 106.089 106.464C106.416 107.028 106.605 107.662 106.64 108.314C106.64 109.514 105.8 109.994 104.76 109.394C104.214 109.038 103.761 108.558 103.436 107.993C103.111 107.428 102.924 106.795 102.89 106.144C102.89 104.954 103.73 104.464 104.76 105.064Z" fill="#0C77FF"/>
<path d="M104.86 113.184C105.374 113.525 105.802 113.981 106.111 114.515C106.42 115.05 106.601 115.648 106.64 116.264C106.64 117.394 105.84 117.854 104.86 117.264C104.343 116.928 103.914 116.475 103.606 115.942C103.298 115.408 103.121 114.809 103.09 114.194C103.09 113.084 103.88 112.624 104.86 113.184Z" fill="#0C77FF"/>
<path d="M105.08 121.314C105.569 121.631 105.975 122.059 106.267 122.563C106.559 123.067 106.728 123.633 106.76 124.214C106.76 125.284 106.01 125.714 105.08 125.214C104.595 124.897 104.191 124.47 103.901 123.968C103.611 123.466 103.443 122.903 103.41 122.324C103.41 121.214 104.16 120.834 105.08 121.314Z" fill="#0C77FF"/>
<path d="M105.39 129.444C105.846 129.743 106.226 130.145 106.499 130.617C106.771 131.09 106.929 131.619 106.96 132.164C106.96 133.164 106.25 133.574 105.39 133.074C104.933 132.777 104.552 132.375 104.279 131.902C104.006 131.43 103.849 130.899 103.82 130.354C103.82 129.354 104.5 128.944 105.39 129.444Z" fill="#0C77FF"/>
<path d="M105.73 137.574C106.157 137.852 106.513 138.227 106.769 138.668C107.024 139.109 107.172 139.605 107.2 140.114C107.2 141.054 106.54 141.424 105.73 140.964C105.302 140.684 104.946 140.307 104.691 139.864C104.435 139.421 104.288 138.925 104.26 138.414C104.26 137.484 104.92 137.104 105.73 137.574Z" fill="#0C77FF"/>
<path d="M106.06 145.694C106.459 145.951 106.791 146.299 107.029 146.709C107.267 147.119 107.405 147.58 107.43 148.054C107.43 148.934 106.82 149.284 106.06 148.844C105.663 148.586 105.333 148.237 105.097 147.827C104.861 147.417 104.725 146.957 104.7 146.484C104.7 145.614 105.31 145.254 106.06 145.694Z" fill="#0C77FF"/>
<path d="M158.31 228.244L121.81 256.954L116.65 253.954C116.37 243.384 119.8 234.044 127.45 224.184C130.7 219.984 133.69 216.074 136.37 212.374C140.319 207.104 143.856 201.538 146.95 195.724C151.35 187.044 152.44 175.654 152.37 169.664C152.385 169.464 152.385 169.264 152.37 169.064V168.494L155.11 169.834L158.31 228.244Z" fill="#0C77FF"/>
<path opacity="0.35" d="M150.86 197.674C147.59 206.444 141.16 216.154 132.61 227.184C124.96 237.054 121.53 246.374 121.81 256.954L116.65 253.954C116.37 243.384 119.8 234.044 127.45 224.184C130.7 219.984 133.69 216.074 136.37 212.374C140.319 207.104 143.856 201.538 146.95 195.724C151.35 187.044 152.44 175.654 152.37 169.664C152.385 169.464 152.385 169.264 152.37 169.064V168.494L155.11 169.834C155.31 175.394 154.42 188.114 150.86 197.674Z" fill="black"/>
<path d="M117.85 242.834C117.351 244.908 117.016 247.018 116.85 249.144L122 252.144V251.984C122.177 249.925 122.511 247.882 123 245.874L117.85 242.834Z" fill="#37474F"/>
<path d="M155.09 169.834C155.31 175.384 154.42 188.114 150.86 197.664C147.59 206.444 141.16 216.154 132.61 227.174C124.96 237.034 121.52 246.374 121.81 256.944L158.31 228.234L155.09 169.834Z" fill="#0C77FF"/>
<path d="M157.77 218.454L123.01 245.834C122.482 247.907 122.127 250.021 121.95 252.154L158.06 223.754L157.77 218.454Z" fill="#455A64"/>
<path d="M281.86 328.344C281.86 324.915 280.498 321.626 278.073 319.201C275.648 316.776 272.359 315.414 268.93 315.414C265.501 315.414 262.212 316.776 259.787 319.201C257.362 321.626 256 324.915 256 328.344C255.99 328.464 255.99 328.584 256 328.704C255.99 328.824 255.99 328.944 256 329.064C256.14 330.854 257.4 332.614 259.78 333.984C264.83 336.904 273.03 336.904 278.08 333.984C280.45 332.614 281.71 330.854 281.86 329.064V328.704C281.86 328.584 281.87 328.464 281.86 328.344Z" fill="#0C77FF"/>
<path opacity="0.5" d="M281.86 328.344C281.86 324.915 280.498 321.626 278.073 319.201C275.648 316.776 272.359 315.414 268.93 315.414C265.501 315.414 262.212 316.776 259.787 319.201C257.362 321.626 256 324.915 256 328.344C255.99 328.464 255.99 328.584 256 328.704C255.99 328.824 255.99 328.944 256 329.064C256.14 330.854 257.4 332.614 259.78 333.984C264.83 336.904 273.03 336.904 278.08 333.984C280.45 332.614 281.71 330.854 281.86 329.064V328.704C281.86 328.584 281.87 328.464 281.86 328.344Z" fill="white"/>
<path opacity="0.5" d="M274.5 317.054C272.556 316.114 270.408 315.676 268.252 315.781C266.095 315.885 263.999 316.528 262.156 317.65C260.312 318.773 258.778 320.34 257.696 322.208C256.614 324.076 256.017 326.186 255.96 328.344C255.95 328.464 255.95 328.584 255.96 328.704C255.95 328.824 255.95 328.944 255.96 329.064C256.1 330.854 257.36 332.614 259.74 333.984C261.747 335.08 263.954 335.761 266.23 335.984C262.87 335.414 260.7 331.664 261.74 327.524C262.97 322.744 267.82 315.834 274.5 317.054Z" fill="white"/>
<path opacity="0.2" d="M281.86 329.064V328.344C281.813 326.567 281.398 324.819 280.643 323.21C279.887 321.601 278.807 320.166 277.47 318.994C278.87 320.434 282 325.884 278.6 329.994C276.37 332.724 265.76 336.624 257.04 331.614C257.787 332.567 258.719 333.36 259.78 333.944C264.83 336.864 273.03 336.864 278.08 333.944C280.5 332.614 281.71 330.834 281.86 329.064Z" fill="#0C77FF"/>
<path opacity="0.5" d="M268.79 318.674C269.37 319.994 268.26 321.754 266.31 322.614C264.36 323.474 262.31 323.094 261.73 321.774C261.15 320.454 262.26 318.694 264.21 317.844C266.16 316.994 268.22 317.354 268.79 318.674Z" fill="white"/>
<path opacity="0.5" d="M261.3 324.044C261.419 324.43 261.381 324.847 261.194 325.205C261.006 325.563 260.685 325.832 260.3 325.954C260.043 326.006 259.776 325.985 259.53 325.892C259.284 325.798 259.07 325.637 258.912 325.427C258.754 325.217 258.659 324.967 258.637 324.705C258.616 324.443 258.669 324.18 258.791 323.947C258.913 323.714 259.099 323.521 259.326 323.389C259.554 323.257 259.814 323.193 260.076 323.203C260.339 323.213 260.593 323.297 260.81 323.446C261.027 323.595 261.197 323.802 261.3 324.044Z" fill="white"/>
<path d="M262.07 338.064C261.96 333.415 260.036 328.993 256.708 325.744C253.381 322.495 248.915 320.676 244.265 320.676C239.615 320.676 235.149 322.495 231.822 325.744C228.494 328.993 226.57 333.415 226.46 338.064C226.46 338.234 226.46 338.384 226.46 338.554V339.054C226.66 341.514 228.4 343.934 231.67 345.834C238.62 349.834 249.91 349.834 256.88 345.834C260.13 343.934 261.88 341.514 262.07 339.054C262.08 338.887 262.08 338.721 262.07 338.554C262.08 338.391 262.08 338.227 262.07 338.064Z" fill="#0C77FF"/>
<path opacity="0.6" d="M262.07 338.064C261.96 333.415 260.036 328.993 256.708 325.744C253.381 322.495 248.915 320.676 244.265 320.676C239.615 320.676 235.149 322.495 231.822 325.744C228.494 328.993 226.57 333.415 226.46 338.064C226.46 338.234 226.46 338.384 226.46 338.554V339.054C226.66 341.514 228.4 343.934 231.67 345.834C238.62 349.834 249.91 349.834 256.88 345.834C260.13 343.934 261.88 341.514 262.07 339.054C262.08 338.887 262.08 338.721 262.07 338.554C262.08 338.391 262.08 338.227 262.07 338.064Z" fill="white"/>
<path opacity="0.5" d="M251.99 322.514C249.315 321.226 246.361 320.627 243.395 320.774C240.43 320.921 237.549 321.808 235.014 323.354C232.48 324.9 230.373 327.056 228.886 329.626C227.398 332.195 226.578 335.096 226.5 338.064C226.5 338.234 226.5 338.384 226.5 338.554V339.054C226.7 341.514 228.44 343.934 231.71 345.834C234.476 347.345 237.515 348.29 240.65 348.614C236.03 347.824 233.04 342.664 234.46 336.964C236.07 330.354 242.75 320.834 251.99 322.514Z" fill="white"/>
<path opacity="0.1" d="M262.07 339.054C262.08 338.887 262.08 338.721 262.07 338.554C262.08 338.391 262.08 338.227 262.07 338.064C262.007 335.615 261.437 333.207 260.395 330.99C259.354 328.773 257.864 326.796 256.02 325.184C257.96 327.184 262.26 334.674 257.59 340.394C254.51 344.154 239.91 349.514 227.89 342.624C228.923 343.935 230.208 345.026 231.67 345.834C238.62 349.834 249.91 349.834 256.88 345.834C260.13 343.934 261.87 341.514 262.07 339.054Z" fill="#0C77FF"/>
<path opacity="0.3" d="M244.08 324.754C244.88 326.564 243.35 328.994 240.66 330.174C237.97 331.354 235.15 330.844 234.35 329.024C233.55 327.204 235.09 324.784 237.78 323.604C240.47 322.424 243.29 322.934 244.08 324.754Z" fill="white"/>
<path opacity="0.3" d="M233.77 332.144C234.049 332.538 234.2 333.009 234.201 333.492C234.201 333.975 234.053 334.447 233.775 334.842C233.498 335.237 233.104 335.537 232.65 335.7C232.195 335.862 231.701 335.881 231.235 335.752C230.77 335.623 230.356 335.353 230.05 334.979C229.744 334.605 229.561 334.146 229.527 333.664C229.492 333.182 229.607 332.702 229.857 332.288C230.106 331.874 230.478 331.548 230.92 331.354C231.404 331.088 231.973 331.022 232.505 331.17C233.038 331.317 233.491 331.667 233.77 332.144Z" fill="white"/>
<path d="M230.32 344.394C230.147 338.648 227.743 333.195 223.617 329.191C219.492 325.188 213.969 322.949 208.22 322.949C202.471 322.949 196.949 325.188 192.823 329.191C188.697 333.195 186.293 338.648 186.12 344.394V345.624C186.37 348.684 188.53 351.684 192.59 354.034C201.21 359.034 215.23 359.034 223.87 354.034C227.87 351.684 230.07 348.684 230.32 345.624V345.004C230.32 344.794 230.34 344.604 230.32 344.394Z" fill="#0C77FF"/>
<path opacity="0.8" d="M230.32 344.394C230.147 338.648 227.743 333.195 223.617 329.191C219.492 325.188 213.969 322.949 208.22 322.949C202.471 322.949 196.949 325.188 192.823 329.191C188.697 333.195 186.293 338.648 186.12 344.394V345.624C186.37 348.684 188.53 351.684 192.59 354.034C201.21 359.034 215.23 359.034 223.87 354.034C227.87 351.684 230.07 348.684 230.32 345.624V345.004C230.32 344.794 230.34 344.604 230.32 344.394Z" fill="white"/>
<path opacity="0.3" d="M217.81 325.094C214.488 323.489 210.816 322.742 207.131 322.921C203.445 323.1 199.863 324.199 196.712 326.119C193.561 328.038 190.94 330.716 189.09 333.908C187.24 337.101 186.219 340.706 186.12 344.394C186.12 344.604 186.12 344.794 186.12 345.004V345.624C186.37 348.684 188.53 351.684 192.59 354.034C196.02 355.912 199.79 357.088 203.68 357.494C197.95 356.494 194.24 350.104 196 343.034C198.05 334.834 206.34 322.974 217.81 325.094Z" fill="white"/>
<path opacity="0.1" d="M230.32 345.624V344.394C230.244 341.353 229.538 338.362 228.247 335.608C226.957 332.854 225.109 330.398 222.82 328.394C225.22 330.864 230.56 340.174 224.75 347.264C220.94 351.934 202.81 358.594 187.9 350.034C189.18 351.668 190.775 353.028 192.59 354.034C201.21 359.034 215.23 359.034 223.87 354.034C227.91 351.684 230.07 348.684 230.32 345.624Z" fill="#0C77FF"/>
<path opacity="0.3" d="M208 327.834C209 330.084 207.08 333.104 203.75 334.564C200.42 336.024 196.91 335.394 195.92 333.134C194.93 330.874 196.83 327.874 200.17 326.404C203.51 324.934 207.01 325.624 208 327.834Z" fill="white"/>
<path opacity="0.3" d="M195.19 337.044C195.531 337.535 195.713 338.119 195.71 338.717C195.707 339.315 195.519 339.897 195.172 340.384C194.826 340.871 194.337 341.239 193.773 341.437C193.209 341.636 192.597 341.655 192.022 341.492C191.446 341.33 190.935 340.994 190.559 340.529C190.182 340.065 189.958 339.496 189.917 338.899C189.876 338.303 190.021 337.708 190.331 337.197C190.641 336.686 191.102 336.283 191.65 336.044C192.253 335.712 192.962 335.631 193.625 335.818C194.287 336.005 194.849 336.446 195.19 337.044Z" fill="white"/>
<path d="M292.8 331.374C292.8 329.303 291.977 327.316 290.512 325.851C289.048 324.387 287.061 323.564 284.99 323.564C282.918 323.564 280.932 324.387 279.467 325.851C278.003 327.316 277.18 329.303 277.18 331.374C277.174 331.447 277.174 331.521 277.18 331.594C277.175 331.664 277.175 331.734 277.18 331.804C277.284 332.453 277.547 333.066 277.944 333.589C278.342 334.113 278.862 334.53 279.46 334.804C281.169 335.673 283.058 336.129 284.976 336.134C286.894 336.14 288.786 335.694 290.5 334.834C291.097 334.56 291.617 334.143 292.015 333.619C292.413 333.096 292.675 332.483 292.78 331.834C292.785 331.764 292.785 331.694 292.78 331.624C292.793 331.541 292.8 331.458 292.8 331.374Z" fill="#0C77FF"/>
<path opacity="0.2" d="M292.8 331.374C292.8 329.303 291.977 327.316 290.512 325.851C289.048 324.387 287.061 323.564 284.99 323.564C282.918 323.564 280.932 324.387 279.467 325.851C278.003 327.316 277.18 329.303 277.18 331.374C277.174 331.447 277.174 331.521 277.18 331.594C277.175 331.664 277.175 331.734 277.18 331.804C277.284 332.453 277.547 333.066 277.944 333.589C278.342 334.113 278.862 334.53 279.46 334.804C281.169 335.673 283.058 336.129 284.976 336.134C286.894 336.14 288.786 335.694 290.5 334.834C291.097 334.56 291.617 334.143 292.015 333.619C292.413 333.096 292.675 332.483 292.78 331.834C292.785 331.764 292.785 331.694 292.78 331.624C292.793 331.541 292.8 331.458 292.8 331.374Z" fill="white"/>
<path opacity="0.5" d="M288.38 324.554C287.206 323.985 285.908 323.719 284.605 323.782C283.301 323.844 282.035 324.232 280.92 324.911C279.806 325.589 278.88 326.536 278.226 327.666C277.573 328.795 277.213 330.07 277.18 331.374C277.174 331.447 277.174 331.521 277.18 331.594C277.175 331.664 277.175 331.734 277.18 331.804C277.284 332.453 277.547 333.066 277.944 333.589C278.342 334.113 278.862 334.53 279.46 334.804C280.673 335.465 282.005 335.88 283.38 336.024C281.38 335.674 280.04 333.414 280.67 330.914C281.39 327.994 284.32 323.834 288.38 324.554Z" fill="white"/>
<path opacity="0.05" d="M292.8 331.834C292.805 331.764 292.805 331.694 292.8 331.624C292.805 331.551 292.805 331.477 292.8 331.404C292.772 330.33 292.522 329.274 292.066 328.302C291.61 327.329 290.958 326.462 290.15 325.754C291 326.624 292.89 329.914 290.83 332.424C289.48 334.074 283.08 336.424 277.83 333.424C278.287 334.001 278.855 334.48 279.5 334.834C281.206 335.692 283.09 336.139 285 336.139C286.91 336.139 288.794 335.692 290.5 334.834C291.101 334.562 291.626 334.146 292.027 333.623C292.428 333.099 292.694 332.485 292.8 331.834Z" fill="#455A64"/>
<path opacity="0.3" d="M284.91 325.534C285.26 326.324 284.59 327.394 283.41 327.914C282.23 328.434 280.99 328.204 280.64 327.404C280.29 326.604 280.96 325.544 282.14 325.024C283.32 324.504 284.56 324.734 284.91 325.534Z" fill="white"/>
<path opacity="0.3" d="M280.38 328.774C280.494 328.944 280.553 329.144 280.55 329.349C280.546 329.553 280.48 329.752 280.36 329.918C280.24 330.083 280.072 330.208 279.879 330.276C279.686 330.343 279.477 330.35 279.28 330.295C279.083 330.239 278.908 330.125 278.778 329.967C278.648 329.809 278.569 329.615 278.553 329.412C278.537 329.208 278.583 329.004 278.686 328.827C278.789 328.651 278.944 328.51 279.13 328.424C279.343 328.308 279.593 328.279 279.826 328.345C280.06 328.41 280.258 328.564 280.38 328.774Z" fill="white"/>
<path d="M11.1402 321.964C11.1402 318.535 12.5025 315.246 14.9273 312.821C17.3521 310.396 20.6409 309.034 24.0702 309.034C27.4994 309.034 30.7882 310.396 33.2131 312.821C35.6379 315.246 37.0002 318.535 37.0002 321.964C37.0099 322.084 37.0099 322.204 37.0002 322.324C37.0104 322.444 37.0104 322.564 37.0002 322.684C36.8602 324.474 35.6002 326.234 33.2202 327.614C28.1702 330.524 19.9702 330.524 14.9202 327.614C12.5502 326.234 11.2902 324.474 11.1402 322.684V322.324C11.1402 322.194 11.1302 322.094 11.1402 321.964Z" fill="#0C77FF"/>
<path opacity="0.5" d="M11.1402 321.964C11.1402 318.535 12.5025 315.246 14.9273 312.821C17.3521 310.396 20.6409 309.034 24.0702 309.034C27.4994 309.034 30.7882 310.396 33.2131 312.821C35.6379 315.246 37.0002 318.535 37.0002 321.964C37.0099 322.084 37.0099 322.204 37.0002 322.324C37.0104 322.444 37.0104 322.564 37.0002 322.684C36.8602 324.474 35.6002 326.234 33.2202 327.614C28.1702 330.524 19.9702 330.524 14.9202 327.614C12.5502 326.234 11.2902 324.474 11.1402 322.684V322.324C11.1402 322.194 11.1302 322.094 11.1402 321.964Z" fill="white"/>
<path opacity="0.5" d="M18.5 310.674C20.4436 309.734 22.5917 309.296 24.7481 309.401C26.9045 309.505 29.0004 310.148 30.8443 311.27C32.6882 312.393 34.2214 313.96 35.3037 315.828C36.386 317.696 36.9829 319.806 37.04 321.964C37.0497 322.084 37.0497 322.204 37.04 322.324C37.0503 322.444 37.0503 322.564 37.04 322.684C36.9 324.474 35.64 326.234 33.26 327.614C31.2496 328.702 29.044 329.382 26.77 329.614C30.13 329.034 32.3 325.294 31.27 321.154C30.03 316.374 25.18 309.434 18.5 310.674Z" fill="white"/>
<path opacity="0.2" d="M11.1396 322.684V321.964C11.1867 320.188 11.6011 318.442 12.3566 316.834C13.1122 315.227 14.1926 313.793 15.5296 312.624C14.1296 314.064 10.9997 319.514 14.3997 323.624C16.6297 326.354 27.2397 330.244 35.9597 325.244C35.2104 326.195 34.2789 326.987 33.2197 327.574C28.1697 330.484 19.9696 330.484 14.9196 327.574C12.5496 326.234 11.2896 324.474 11.1396 322.684Z" fill="#0C77FF"/>
<path opacity="0.3" d="M24.2096 312.304C23.6296 313.624 24.7396 315.384 26.6896 316.244C28.6396 317.104 30.6896 316.724 31.2696 315.404C31.8496 314.084 30.7395 312.324 28.7895 311.464C26.8395 310.604 24.7796 310.984 24.2096 312.304Z" fill="white"/>
<path opacity="0.3" d="M31.6998 317.664C31.4963 317.95 31.3862 318.292 31.3848 318.643C31.3833 318.994 31.4906 319.337 31.6918 319.624C31.893 319.912 32.1783 320.13 32.5085 320.249C32.8387 320.368 33.1977 320.382 33.5361 320.289C33.8745 320.196 34.1757 320 34.3985 319.729C34.6213 319.458 34.7546 319.124 34.7802 318.774C34.8058 318.424 34.7225 318.074 34.5415 317.774C34.3606 317.473 34.0911 317.235 33.7698 317.094C33.4185 316.901 33.0057 316.852 32.6191 316.959C32.2326 317.065 31.9028 317.318 31.6998 317.664Z" fill="white"/>
<path d="M49.82 320.614C49.9331 315.715 51.9588 311.054 55.4637 307.63C58.9686 304.205 63.6745 302.287 68.575 302.287C73.4754 302.287 78.1814 304.205 81.6863 307.63C85.1912 311.054 87.2168 315.715 87.33 320.614C87.33 320.794 87.33 320.954 87.33 321.134V321.664C87.12 324.254 85.33 326.804 81.84 328.794C74.52 333.034 62.63 333.034 55.29 328.794C51.86 326.794 50.03 324.254 49.82 321.664C49.81 321.487 49.81 321.31 49.82 321.134C49.81 320.961 49.81 320.787 49.82 320.614Z" fill="#0C77FF"/>
<path opacity="0.7" d="M49.82 320.614C49.9331 315.715 51.9588 311.054 55.4637 307.63C58.9686 304.205 63.6745 302.287 68.575 302.287C73.4754 302.287 78.1814 304.205 81.6863 307.63C85.1912 311.054 87.2168 315.715 87.33 320.614C87.33 320.794 87.33 320.954 87.33 321.134V321.664C87.12 324.254 85.33 326.804 81.84 328.794C74.52 333.034 62.63 333.034 55.29 328.794C51.86 326.794 50.03 324.254 49.82 321.664C49.81 321.487 49.81 321.31 49.82 321.134C49.81 320.961 49.81 320.787 49.82 320.614Z" fill="white"/>
<path opacity="0.3" d="M60.4297 304.234C63.2497 302.872 66.3662 302.237 69.4944 302.389C72.6227 302.54 75.6631 303.473 78.3381 305.102C81.0131 306.731 83.2375 309.004 84.8082 311.714C86.3788 314.423 87.2457 317.483 87.3297 320.614C87.3297 320.794 87.3297 320.954 87.3297 321.134V321.664C87.1197 324.254 85.3297 326.804 81.8397 328.794C78.9313 330.394 75.7314 331.393 72.4297 331.734C77.2897 330.894 80.4297 325.464 78.9497 319.464C77.2097 312.504 70.1697 302.444 60.4297 304.234Z" fill="white"/>
<path opacity="0.1" d="M49.82 321.664C49.81 321.487 49.81 321.31 49.82 321.134C49.81 320.961 49.81 320.787 49.82 320.614C49.8866 318.036 50.4871 315.5 51.5835 313.166C52.6799 310.832 54.2484 308.751 56.19 307.054C54.19 309.154 49.61 317.054 54.54 323.054C57.78 327.054 73.16 332.664 85.82 325.404C84.7276 326.786 83.3669 327.932 81.82 328.774C74.5 333.014 62.61 333.014 55.27 328.774C51.86 326.834 50.03 324.254 49.82 321.664Z" fill="#0C77FF"/>
<path opacity="0.5" d="M68.7599 306.594C67.9199 308.504 69.5399 311.064 72.3699 312.304C75.1999 313.544 78.1699 313.004 79.0099 311.094C79.8499 309.184 78.2399 306.624 75.4099 305.384C72.5799 304.144 69.5999 304.684 68.7599 306.594Z" fill="white"/>
<path opacity="0.5" d="M79.6302 314.384C79.3386 314.799 79.1826 315.295 79.1836 315.802C79.1846 316.31 79.3424 316.804 79.6355 317.219C79.9287 317.633 80.3427 317.946 80.821 318.116C81.2992 318.286 81.8182 318.303 82.3069 318.166C82.7955 318.03 83.2299 317.745 83.5505 317.352C83.8711 316.958 84.0622 316.475 84.0976 315.969C84.133 315.463 84.011 314.958 83.7483 314.524C83.4856 314.09 83.0951 313.748 82.6302 313.544C82.12 313.262 81.5194 313.192 80.9581 313.349C80.3968 313.507 79.9199 313.878 79.6302 314.384Z" fill="white"/>
<path d="M33.3005 331.624C33.4107 326.975 35.3349 322.553 38.662 319.304C41.9891 316.055 46.455 314.236 51.1055 314.236C55.7559 314.236 60.2219 316.055 63.549 319.304C66.876 322.553 68.8003 326.975 68.9105 331.624C68.9205 331.791 68.9205 331.957 68.9105 332.124C68.9205 332.287 68.9205 332.451 68.9105 332.614C68.7105 335.084 66.9705 337.504 63.7005 339.394C56.7505 343.394 45.4605 343.394 38.5005 339.394C35.2405 337.504 33.5005 335.084 33.3005 332.614C33.2905 332.451 33.2905 332.287 33.3005 332.124C33.2905 331.957 33.2905 331.791 33.3005 331.624Z" fill="#0C77FF"/>
<path opacity="0.6" d="M33.3005 331.624C33.4107 326.975 35.3349 322.553 38.662 319.304C41.9891 316.055 46.455 314.236 51.1055 314.236C55.7559 314.236 60.2219 316.055 63.549 319.304C66.876 322.553 68.8003 326.975 68.9105 331.624C68.9205 331.791 68.9205 331.957 68.9105 332.124C68.9205 332.287 68.9205 332.451 68.9105 332.614C68.7105 335.084 66.9705 337.504 63.7005 339.394C56.7505 343.394 45.4605 343.394 38.5005 339.394C35.2405 337.504 33.5005 335.084 33.3005 332.614C33.2905 332.451 33.2905 332.287 33.3005 332.124C33.2905 331.957 33.2905 331.791 33.3005 331.624Z" fill="white"/>
<path opacity="0.5" d="M43.3799 316.084C46.0555 314.787 49.0136 314.182 51.9836 314.323C54.9536 314.465 57.8406 315.349 60.3805 316.896C62.9203 318.442 65.0319 320.6 66.522 323.173C68.0121 325.746 68.8331 328.652 68.9099 331.624C68.9199 331.791 68.9199 331.957 68.9099 332.124C68.9199 332.287 68.9199 332.451 68.9099 332.614C68.7099 335.084 66.9699 337.504 63.6999 339.394C60.9364 340.912 57.8964 341.861 54.7599 342.184C59.3799 341.384 62.3699 336.184 60.9499 330.534C59.2999 323.924 52.6199 314.374 43.3799 316.084Z" fill="white"/>
<path opacity="0.15" d="M33.3005 332.614C33.2905 332.451 33.2905 332.287 33.3005 332.124C33.2905 331.957 33.2905 331.791 33.3005 331.624C33.3573 329.181 33.9198 326.776 34.9525 324.561C35.9851 322.345 37.4656 320.368 39.3005 318.754C37.3605 320.754 33.0605 328.244 37.7305 333.954C40.8105 337.714 55.4105 343.084 67.4305 336.184C66.4023 337.5 65.116 338.593 63.6505 339.394C56.7005 343.394 45.4105 343.394 38.4505 339.394C35.2405 337.504 33.5005 335.084 33.3005 332.614Z" fill="#0C77FF"/>
<path opacity="0.3" d="M51.2905 318.314C50.4905 320.134 52.0205 322.564 54.7105 323.744C57.4005 324.924 60.2205 324.404 61.0205 322.594C61.8205 320.784 60.2805 318.344 57.5905 317.164C54.9005 315.984 52.0805 316.504 51.2905 318.314Z" fill="white"/>
<path opacity="0.3" d="M61.6005 325.704C61.3213 326.098 61.1709 326.569 61.1699 327.052C61.169 327.535 61.3175 328.007 61.5952 328.402C61.8729 328.797 62.2661 329.097 62.7208 329.26C63.1755 329.422 63.6695 329.441 64.135 329.312C64.6005 329.183 65.0146 328.913 65.3206 328.539C65.6265 328.165 65.8094 327.706 65.8439 327.224C65.8785 326.742 65.7631 326.262 65.5136 325.848C65.2641 325.434 64.8928 325.108 64.4505 324.914C63.9661 324.648 63.3973 324.582 62.865 324.73C62.3327 324.877 61.879 325.227 61.6005 325.704Z" fill="white"/>
<path d="M66.3105 341.724C66.3105 338.822 66.8821 335.948 67.9927 333.267C69.1034 330.585 70.7312 328.149 72.7834 326.097C74.8356 324.045 77.2719 322.417 79.9532 321.306C82.6345 320.196 85.5083 319.624 88.4105 319.624C91.3127 319.624 94.1865 320.196 96.8678 321.306C99.5491 322.417 101.985 324.045 104.038 326.097C106.09 328.149 107.718 330.585 108.828 333.267C109.939 335.948 110.51 338.822 110.51 341.724C110.505 341.934 110.505 342.124 110.505 342.344V342.954C110.255 346.014 108.105 349.014 104.035 351.364C95.4155 356.364 81.4055 356.364 72.7555 351.364C68.7555 349.014 66.5655 346.014 66.3155 342.954V342.344C66.3105 342.134 66.2905 341.934 66.3105 341.724Z" fill="#0C77FF"/>
<path opacity="0.8" d="M66.3105 341.724C66.3105 338.822 66.8821 335.948 67.9927 333.267C69.1034 330.585 70.7312 328.149 72.7834 326.097C74.8356 324.045 77.2719 322.417 79.9532 321.306C82.6345 320.196 85.5083 319.624 88.4105 319.624C91.3127 319.624 94.1865 320.196 96.8678 321.306C99.5491 322.417 101.985 324.045 104.038 326.097C106.09 328.149 107.718 330.585 108.828 333.267C109.939 335.948 110.51 338.822 110.51 341.724C110.505 341.934 110.505 342.124 110.505 342.344V342.954C110.255 346.014 108.105 349.014 104.035 351.364C95.4155 356.364 81.4055 356.364 72.7555 351.364C68.7555 349.014 66.5655 346.014 66.3155 342.954V342.344C66.3105 342.134 66.2905 341.934 66.3105 341.724Z" fill="white"/>
<path opacity="0.3" d="M78.8096 322.434C82.1308 320.824 85.8027 320.073 89.4893 320.249C93.176 320.425 96.7596 321.522 99.9123 323.441C103.065 325.36 105.686 328.04 107.536 331.234C109.385 334.428 110.404 338.034 110.5 341.724V342.954C110.25 346.014 108.1 349.014 104.03 351.364C100.601 353.247 96.8303 354.427 92.9396 354.834C98.6796 353.834 102.39 347.444 100.62 340.374C98.5796 332.164 90.2896 320.314 78.8096 322.434Z" fill="white"/>
<path opacity="0.1" d="M66.3096 342.954V341.724C66.3858 338.683 67.0917 335.692 68.3826 332.938C69.6735 330.184 71.5214 327.728 73.8096 325.724C71.4096 328.194 66.0696 337.494 71.8696 344.584C75.6896 349.254 93.8096 355.914 108.72 347.354C107.445 348.993 105.849 350.354 104.03 351.354C95.4096 356.354 81.3996 356.354 72.7496 351.354C68.7096 349.014 66.5596 346.014 66.3096 342.954Z" fill="#0C77FF"/>
<path opacity="0.3" d="M88.6301 325.204C87.6301 327.464 89.5401 330.474 92.8701 331.934C96.2001 333.394 99.7101 332.764 100.7 330.514C101.69 328.264 99.7901 325.244 96.4601 323.774C93.1301 322.304 89.6201 322.954 88.6301 325.204Z" fill="white"/>
<path opacity="0.3" d="M101.43 334.374C101.088 334.865 100.906 335.449 100.909 336.047C100.912 336.645 101.1 337.227 101.447 337.714C101.794 338.201 102.283 338.569 102.847 338.767C103.411 338.966 104.022 338.985 104.598 338.822C105.173 338.66 105.684 338.324 106.061 337.859C106.438 337.395 106.662 336.826 106.702 336.229C106.743 335.633 106.599 335.038 106.288 334.527C105.978 334.016 105.518 333.613 104.97 333.374C104.366 333.045 103.657 332.965 102.996 333.152C102.334 333.339 101.772 333.778 101.43 334.374Z" fill="white"/>
<path d="M190.13 345.694C190.012 340.421 187.835 335.404 184.064 331.716C180.294 328.028 175.229 325.963 169.955 325.963C164.68 325.963 159.616 328.028 155.845 331.716C152.074 335.404 149.897 340.421 149.78 345.694C149.753 346.067 149.753 346.441 149.78 346.814C150.01 349.614 151.98 352.354 155.69 354.494C163.56 359.044 176.35 359.044 184.24 354.494C187.93 352.354 189.9 349.614 190.13 346.814C190.156 346.441 190.156 346.067 190.13 345.694Z" fill="#0C77FF"/>
<path opacity="0.9" d="M190.13 345.694C190.012 340.421 187.835 335.404 184.064 331.716C180.294 328.028 175.229 325.963 169.955 325.963C164.68 325.963 159.616 328.028 155.845 331.716C152.074 335.404 149.897 340.421 149.78 345.694C149.753 346.067 149.753 346.441 149.78 346.814C150.01 349.614 151.98 352.354 155.69 354.494C163.56 359.044 176.35 359.044 184.24 354.494C187.93 352.354 189.9 349.614 190.13 346.814C190.156 346.441 190.156 346.067 190.13 345.694Z" fill="white"/>
<path opacity="0.5" d="M178.71 328.074C175.677 326.607 172.325 325.924 168.959 326.087C165.594 326.249 162.324 327.253 159.446 329.005C156.569 330.758 154.176 333.203 152.488 336.119C150.799 339.034 149.868 342.326 149.78 345.694C149.753 346.067 149.753 346.441 149.78 346.814C150.01 349.614 151.98 352.354 155.69 354.494C158.82 356.208 162.26 357.282 165.81 357.654C160.58 356.754 157.19 350.904 158.81 344.454C160.66 336.964 168.23 326.144 178.71 328.074Z" fill="white"/>
<path opacity="0.1" d="M190.13 346.834C190.157 346.461 190.157 346.087 190.13 345.714C190.057 342.941 189.411 340.213 188.232 337.702C187.053 335.191 185.367 332.952 183.28 331.124C185.47 333.384 190.35 341.874 185.05 348.354C181.56 352.614 165.05 358.694 151.4 350.884C152.572 352.37 154.031 353.604 155.69 354.514C163.56 359.064 176.35 359.064 184.24 354.514C187.93 352.354 189.9 349.614 190.13 346.834Z" fill="#0C77FF"/>
<path opacity="0.5" d="M165.885 336.744C168.929 335.407 170.664 332.655 169.76 330.597C168.856 328.539 165.656 327.954 162.611 329.291C159.567 330.628 157.832 333.38 158.736 335.438C159.64 337.497 162.841 338.081 165.885 336.744Z" fill="white"/>
<path opacity="0.5" d="M158.06 338.984C158.38 339.431 158.553 339.966 158.556 340.516C158.559 341.066 158.392 341.603 158.077 342.054C157.763 342.504 157.316 342.847 156.799 343.033C156.282 343.22 155.72 343.241 155.19 343.095C154.66 342.949 154.188 342.643 153.839 342.218C153.491 341.793 153.283 341.27 153.243 340.722C153.204 340.173 153.335 339.626 153.619 339.156C153.904 338.685 154.327 338.314 154.83 338.094C155.378 337.792 156.023 337.716 156.626 337.882C157.23 338.048 157.744 338.444 158.06 338.984Z" fill="white"/>
<path d="M105.86 347.884C106.021 342.902 108.113 338.177 111.694 334.71C115.276 331.242 120.065 329.304 125.05 329.304C130.035 329.304 134.824 331.242 138.406 334.71C141.987 338.177 144.079 342.902 144.24 347.884V348.954C144.02 351.614 142.15 354.224 138.62 356.254C131.13 360.584 118.97 360.584 111.46 356.254C107.95 354.254 106.08 351.614 105.86 348.954V348.424C105.86 348.244 105.85 348.064 105.86 347.884Z" fill="#0C77FF"/>
<path opacity="0.9" d="M105.86 347.884C106.021 342.902 108.113 338.177 111.694 334.71C115.276 331.242 120.065 329.304 125.05 329.304C130.035 329.304 134.824 331.242 138.406 334.71C141.987 338.177 144.079 342.902 144.24 347.884V348.954C144.02 351.614 142.15 354.224 138.62 356.254C131.13 360.584 118.97 360.584 111.46 356.254C107.95 354.254 106.08 351.614 105.86 348.954V348.424C105.86 348.244 105.85 348.064 105.86 347.884Z" fill="white"/>
<path opacity="0.5" d="M116.72 331.134C119.604 329.737 122.792 329.085 125.993 329.239C129.194 329.392 132.306 330.345 135.043 332.011C137.781 333.678 140.057 336.003 141.663 338.776C143.27 341.549 144.156 344.68 144.24 347.884V348.954C144.02 351.614 142.15 354.224 138.62 356.254C135.641 357.885 132.367 358.905 128.99 359.254C133.99 358.394 137.19 352.834 135.66 346.694C133.89 339.584 126.69 329.294 116.72 331.134Z" fill="white"/>
<path opacity="0.1" d="M105.86 348.954V347.884C105.933 345.248 106.549 342.655 107.671 340.268C108.793 337.881 110.397 335.752 112.38 334.014C110.29 336.164 105.66 344.244 110.7 350.404C114.01 354.454 129.7 360.234 142.7 352.804C141.591 354.217 140.206 355.391 138.63 356.254C131.14 360.584 118.98 360.584 111.47 356.254C107.95 354.224 106.08 351.614 105.86 348.954Z" fill="#0C77FF"/>
<path opacity="0.5" d="M125.25 333.544C124.39 335.544 126.04 338.114 128.93 339.384C131.82 340.654 134.87 340.104 135.73 338.144C136.59 336.184 134.94 333.574 132.04 332.304C129.14 331.034 126.1 331.584 125.25 333.544Z" fill="white"/>
<path opacity="0.5" d="M136.36 341.504C136.057 341.93 135.893 342.439 135.892 342.961C135.89 343.483 136.05 343.994 136.349 344.421C136.649 344.849 137.074 345.174 137.565 345.351C138.057 345.528 138.591 345.548 139.095 345.409C139.598 345.27 140.046 344.979 140.378 344.575C140.709 344.171 140.907 343.674 140.945 343.153C140.983 342.632 140.858 342.112 140.589 341.665C140.319 341.217 139.918 340.864 139.44 340.654C138.917 340.366 138.302 340.294 137.727 340.453C137.152 340.612 136.661 340.989 136.36 341.504Z" fill="white"/>
<path d="M155.65 354.594C155.578 352.57 154.723 350.652 153.265 349.246C151.808 347.84 149.861 347.054 147.836 347.054C145.81 347.054 143.863 347.84 142.406 349.246C140.948 350.652 140.093 352.57 140.021 354.594V355.034C140.126 355.684 140.39 356.298 140.789 356.821C141.189 357.344 141.711 357.761 142.311 358.034C144.025 358.902 145.919 359.354 147.84 359.354C149.762 359.354 151.656 358.902 153.37 358.034C153.968 357.76 154.488 357.343 154.886 356.819C155.284 356.296 155.546 355.683 155.65 355.034C155.655 354.961 155.655 354.887 155.65 354.814C155.656 354.741 155.656 354.667 155.65 354.594Z" fill="#0C77FF"/>
<path opacity="0.9" d="M155.65 354.594C155.578 352.57 154.723 350.652 153.265 349.246C151.808 347.84 149.861 347.054 147.836 347.054C145.81 347.054 143.863 347.84 142.406 349.246C140.948 350.652 140.093 352.57 140.021 354.594V355.034C140.126 355.684 140.39 356.298 140.789 356.821C141.189 357.344 141.711 357.761 142.311 358.034C144.025 358.902 145.919 359.354 147.84 359.354C149.762 359.354 151.656 358.902 153.37 358.034C153.968 357.76 154.488 357.343 154.886 356.819C155.284 356.296 155.546 355.683 155.65 355.034C155.655 354.961 155.655 354.887 155.65 354.814C155.656 354.741 155.656 354.667 155.65 354.594Z" fill="white"/>
<path opacity="0.6" d="M151.23 347.774C150.174 347.26 149.015 346.993 147.84 346.994C145.804 346.993 143.848 347.787 142.387 349.206C140.927 350.625 140.078 352.558 140.021 354.594V355.034C140.126 355.684 140.39 356.298 140.789 356.821C141.189 357.344 141.711 357.761 142.311 358.034C143.524 358.695 144.856 359.11 146.23 359.254C144.23 358.904 142.891 356.644 143.521 354.144C144.241 351.214 147.17 347.024 151.23 347.774Z" fill="white"/>
<path opacity="0.1" d="M155.65 355.034C155.654 354.961 155.654 354.887 155.65 354.814C155.655 354.741 155.655 354.667 155.65 354.594C155.622 353.52 155.372 352.464 154.916 351.492C154.46 350.519 153.807 349.652 153 348.944C153.85 349.824 155.74 353.114 153.68 355.614C152.33 357.264 145.93 359.614 140.68 356.614C141.134 357.19 141.698 357.669 142.34 358.024C144.054 358.892 145.948 359.344 147.87 359.344C149.791 359.344 151.686 358.892 153.4 358.024C153.99 357.747 154.504 357.329 154.896 356.808C155.288 356.287 155.547 355.678 155.65 355.034Z" fill="#0C77FF"/>
<path opacity="0.5" d="M147.76 348.754C148.11 349.554 147.44 350.614 146.26 351.134C145.08 351.654 143.84 351.424 143.49 350.634C143.14 349.844 143.81 348.764 144.99 348.244C146.17 347.724 147.41 347.954 147.76 348.754Z" fill="white"/>
<path opacity="0.5" d="M143.23 351.994C143.346 352.163 143.407 352.363 143.405 352.568C143.403 352.772 143.339 352.972 143.22 353.138C143.102 353.305 142.935 353.432 142.742 353.501C142.55 353.57 142.34 353.578 142.143 353.524C141.945 353.47 141.769 353.357 141.638 353.2C141.507 353.043 141.427 352.85 141.409 352.646C141.391 352.442 141.437 352.237 141.539 352.06C141.641 351.883 141.795 351.741 141.98 351.654C142.192 351.537 142.441 351.507 142.674 351.571C142.908 351.634 143.107 351.786 143.23 351.994Z" fill="white"/>
<path d="M0.200028 324.994C0.272451 322.97 1.12752 321.052 2.58521 319.646C4.04289 318.24 5.98945 317.454 8.01503 317.454C10.0406 317.454 11.9872 318.24 13.4449 319.646C14.9025 321.052 15.7576 322.97 15.83 324.994V325.434C15.7247 326.084 15.4606 326.698 15.0611 327.221C14.6616 327.744 14.1391 328.161 13.54 328.434C11.8273 329.307 9.93231 329.762 8.01003 329.762C6.08775 329.762 4.19277 329.307 2.48003 328.434C1.88279 328.16 1.36232 327.743 0.964653 327.219C0.566987 326.696 0.304367 326.083 0.200028 325.434C0.195043 325.361 0.195043 325.287 0.200028 325.214C0.195278 325.141 0.195278 325.067 0.200028 324.994Z" fill="#0C77FF"/>
<path opacity="0.2" d="M0.200028 324.994C0.272451 322.97 1.12752 321.052 2.58521 319.646C4.04289 318.24 5.98945 317.454 8.01503 317.454C10.0406 317.454 11.9872 318.24 13.4449 319.646C14.9025 321.052 15.7576 322.97 15.83 324.994V325.434C15.7247 326.084 15.4606 326.698 15.0611 327.221C14.6616 327.744 14.1391 328.161 13.54 328.434C11.8273 329.307 9.93231 329.762 8.01003 329.762C6.08775 329.762 4.19277 329.307 2.48003 328.434C1.88279 328.16 1.36232 327.743 0.964653 327.219C0.566987 326.696 0.304367 326.083 0.200028 325.434C0.195043 325.361 0.195043 325.287 0.200028 325.214C0.195278 325.141 0.195278 325.067 0.200028 324.994Z" fill="white"/>
<path opacity="0.5" d="M4.62012 318.174C5.79476 317.605 7.09315 317.34 8.39668 317.403C9.7002 317.465 10.9673 317.853 12.0822 318.532C13.1971 319.21 14.1243 320.157 14.779 321.286C15.4337 322.414 15.7951 323.689 15.8301 324.994V325.434C15.7248 326.084 15.4607 326.698 15.0612 327.221C14.6617 327.744 14.1392 328.161 13.5401 328.434C12.3273 329.098 10.9951 329.516 9.62012 329.664C11.6201 329.314 12.9601 327.044 12.3301 324.544C11.6101 321.614 8.68012 317.424 4.62012 318.174Z" fill="white"/>
<path opacity="0.05" d="M0.200028 325.434C0.195043 325.361 0.195043 325.287 0.200028 325.214C0.195278 325.141 0.195278 325.067 0.200028 324.994C0.226779 323.922 0.476166 322.866 0.932358 321.896C1.38855 320.925 2.04159 320.059 2.85003 319.354C2.00003 320.224 0.110029 323.514 2.17003 326.024C3.52003 327.674 9.92003 330.024 15.17 327.024C14.7154 327.597 14.1511 328.072 13.51 328.424C11.7973 329.297 9.90232 329.752 7.98003 329.752C6.05775 329.752 4.16276 329.297 2.45003 328.424C1.85964 328.147 1.346 327.729 0.953835 327.208C0.56167 326.687 0.302882 326.078 0.200028 325.434Z" fill="#455A64"/>
<path opacity="0.3" d="M8.0899 319.154C7.7399 319.954 8.4099 321.024 9.5899 321.534C10.7699 322.044 12.0099 321.834 12.3599 321.034C12.7099 320.234 12.0399 319.174 10.8599 318.654C9.67991 318.134 8.4399 318.364 8.0899 319.154Z" fill="white"/>
<path opacity="0.3" d="M12.6201 322.404C12.506 322.574 12.4468 322.774 12.4503 322.979C12.4539 323.183 12.5201 323.382 12.6399 323.548C12.7598 323.713 12.9276 323.838 13.1207 323.906C13.3138 323.973 13.5229 323.98 13.7198 323.925C13.9168 323.869 14.0921 323.755 14.2221 323.597C14.3521 323.439 14.4306 323.245 14.447 323.042C14.4634 322.838 14.4168 322.634 14.3137 322.457C14.2105 322.281 14.0557 322.14 13.8701 322.054C13.6578 321.935 13.4071 321.905 13.1728 321.971C12.9386 322.037 12.7398 322.192 12.6201 322.404Z" fill="white"/>
</svg>
