<svg width="19" height="19" viewBox="0 0 19 19" fill="none" xmlns="http://www.w3.org/2000/svg">
<path d="M18.5488 16.721L14.0778 12.25C15.2958 10.7603 15.8946 8.85948 15.7504 6.94067C15.6062 5.02185 14.73 3.23186 13.3031 1.94094C11.8761 0.650022 10.0076 -0.0430657 8.08399 0.00503973C6.16037 0.0531452 4.32882 0.838763 2.96819 2.19939C1.60755 3.56003 0.821936 5.39157 0.773831 7.3152C0.725725 9.23882 1.41881 11.1073 2.70973 12.5343C4.00065 13.9612 5.79064 14.8374 7.70946 14.9816C9.62827 15.1258 11.5291 14.527 13.0188 13.309L17.4898 17.78C17.5588 17.852 17.6414 17.9095 17.7329 17.9492C17.8244 17.9888 17.9229 18.0098 18.0226 18.0109C18.1223 18.0119 18.2213 17.9931 18.3136 17.9554C18.4059 17.9178 18.4898 17.862 18.5603 17.7915C18.6308 17.721 18.6866 17.6371 18.7242 17.5448C18.7619 17.4525 18.7807 17.3535 18.7797 17.2538C18.7786 17.1541 18.7576 17.0556 18.718 16.9641C18.6783 16.8726 18.6208 16.79 18.5488 16.721ZM8.28179 13.506C7.09668 13.506 5.93819 13.1546 4.95281 12.4962C3.96743 11.8378 3.19942 10.9019 2.7459 9.80704C2.29238 8.71214 2.17372 7.50735 2.40492 6.34502C2.63613 5.18268 3.20681 4.11501 4.0448 3.27701C4.8828 2.43902 5.95047 1.86833 7.11281 1.63713C8.27514 1.40593 9.47993 1.52459 10.5748 1.97811C11.6697 2.43163 12.6055 3.19964 13.264 4.18502C13.9224 5.1704 14.2738 6.32889 14.2738 7.514C14.2738 9.10317 13.6425 10.6273 12.5188 11.751C11.3951 12.8747 9.87097 13.506 8.28179 13.506Z" fill="#949494"/>
</svg>
