<svg width="16" height="15" viewBox="0 0 16 15" fill="none" xmlns="http://www.w3.org/2000/svg">
<path d="M3.34705 0.639004H5.10905C5.73204 0.639004 6.32952 0.886487 6.77004 1.32701C7.21056 1.76753 7.45805 2.36501 7.45805 2.988V4.75C7.45805 5.373 7.21056 5.97047 6.77004 6.411C6.32952 6.85152 5.73204 7.099 5.10905 7.099H3.34705C2.72405 7.099 2.12658 6.85152 1.68605 6.411C1.24553 5.97047 0.998047 5.373 0.998047 4.75V2.988C0.998047 2.36501 1.24553 1.76753 1.68605 1.32701C2.12658 0.886487 2.72405 0.639004 3.34705 0.639004Z" fill="white"/>
<path d="M3.34705 8.274H5.10905C5.73204 8.274 6.32952 8.5215 6.77004 8.96202C7.21056 9.40255 7.45805 10 7.45805 10.623V12.385C7.45805 13.008 7.21056 13.6055 6.77004 14.046C6.32952 14.4865 5.73204 14.734 5.10905 14.734H3.34705C2.72405 14.734 2.12658 14.4865 1.68605 14.046C1.24553 13.6055 0.998047 13.008 0.998047 12.385V10.623C0.998047 10 1.24553 9.40255 1.68605 8.96202C2.12658 8.5215 2.72405 8.274 3.34705 8.274Z" fill="white"/>
<path d="M14.0913 11.872L12.7443 13.217V2.156L14.0913 3.501C14.2015 3.61107 14.3509 3.67285 14.5067 3.67276C14.6624 3.67266 14.8118 3.6107 14.9218 3.5005C15.0319 3.39031 15.0937 3.2409 15.0936 3.08515C15.0935 2.9294 15.0315 2.78007 14.9213 2.67L13.4023 1.153C13.072 0.823129 12.6242 0.637848 12.1573 0.637848C11.6905 0.637848 11.2427 0.823129 10.9123 1.153L9.39333 2.67C9.28313 2.78007 9.22115 2.9294 9.22106 3.08515C9.22097 3.2409 9.28275 3.39031 9.39281 3.5005C9.50288 3.6107 9.65222 3.67266 9.80797 3.67276C9.96372 3.67285 10.1131 3.61107 10.2233 3.501L11.5703 2.156V13.216L10.2233 11.871C10.1694 11.8132 10.1045 11.7668 10.0323 11.7347C9.96008 11.7025 9.88217 11.6852 9.80315 11.6839C9.72413 11.6825 9.64566 11.6971 9.57241 11.7268C9.49916 11.7565 9.43264 11.8006 9.37682 11.8565C9.32101 11.9125 9.27703 11.9791 9.24755 12.0524C9.21806 12.1257 9.20365 12.2043 9.20519 12.2833C9.20673 12.3623 9.2242 12.4402 9.25652 12.5123C9.28884 12.5844 9.33538 12.6493 9.39333 12.703L10.9123 14.22C11.2431 14.5491 11.6907 14.7339 12.1573 14.7339C12.624 14.7339 13.0716 14.5491 13.4023 14.22L14.9213 12.703C14.9793 12.6493 15.0258 12.5844 15.0581 12.5123C15.0904 12.4402 15.1079 12.3623 15.1095 12.2833C15.111 12.2043 15.0966 12.1257 15.0671 12.0524C15.0376 11.9791 14.9936 11.9125 14.9378 11.8565C14.882 11.8006 14.8155 11.7565 14.7422 11.7268C14.669 11.6971 14.5905 11.6825 14.5115 11.6839C14.4325 11.6852 14.3546 11.7025 14.2824 11.7347C14.2102 11.7668 14.1452 11.8142 14.0913 11.872Z" fill="white"/>
</svg>
