<svg width="22" height="24" viewBox="0 0 22 24" fill="none" xmlns="http://www.w3.org/2000/svg">
<path d="M6.5 16H1C0.734784 16 0.48043 15.8947 0.292893 15.7071C0.105357 15.5196 0 15.2652 0 15C0 14.7348 0.105357 14.4805 0.292893 14.2929C0.48043 14.1054 0.734784 14 1 14H5.965L7.665 11.445C7.76123 11.2976 7.89516 11.1786 8.05288 11.1003C8.2106 11.0221 8.38638 10.9875 8.562 11C8.73696 11.0108 8.90601 11.0674 9.05221 11.1641C9.19841 11.2608 9.31663 11.3942 9.395 11.551L11.624 16.01L12.668 14.444C12.7595 14.3073 12.8832 14.1952 13.0284 14.1178C13.1735 14.0403 13.3355 13.9999 13.5 14H18C18.2652 14 18.5196 14.1054 18.7071 14.2929C18.8946 14.4805 19 14.7348 19 15C19 15.2652 18.8946 15.5196 18.7071 15.7071C18.5196 15.8947 18.2652 16 18 16H14.035L12.335 18.555C12.2434 18.6924 12.1192 18.8049 11.9735 18.8825C11.8278 18.9602 11.6651 19.0005 11.5 19C11.479 19 11.458 19 11.438 19C11.263 18.9892 11.094 18.9327 10.9478 18.836C10.8016 18.7393 10.6834 18.6058 10.605 18.449L8.376 13.989L7.332 15.555C7.24065 15.6919 7.11692 15.8042 6.97178 15.8818C6.82665 15.9594 6.66459 16 6.5 16ZM22 10.485V19C21.9984 20.3256 21.4711 21.5965 20.5338 22.5338C19.5964 23.4711 18.3256 23.9984 17 24H7C5.67441 23.9984 4.40356 23.4711 3.46622 22.5338C2.52888 21.5965 2.00159 20.3256 2 19C2 18.7348 2.10536 18.4805 2.29289 18.2929C2.48043 18.1054 2.73478 18 3 18C3.26522 18 3.51957 18.1054 3.70711 18.2929C3.89464 18.4805 4 18.7348 4 19C4 19.7957 4.31607 20.5587 4.87868 21.1213C5.44129 21.684 6.20435 22 7 22H17C17.7956 22 18.5587 21.684 19.1213 21.1213C19.6839 20.5587 20 19.7957 20 19V10.485C20 10.322 19.992 10.16 19.977 10H15C14.2044 10 13.4413 9.68395 12.8787 9.12135C12.3161 8.55874 12 7.79567 12 7.00003V2.02303C11.84 2.00803 11.678 2.00003 11.515 2.00003H7C6.20435 2.00003 5.44129 2.3161 4.87868 2.87871C4.31607 3.44131 4 4.20438 4 5.00003V11C4 11.2652 3.89464 11.5196 3.70711 11.7071C3.51957 11.8947 3.26522 12 3 12C2.73478 12 2.48043 11.8947 2.29289 11.7071C2.10536 11.5196 2 11.2652 2 11V5.00003C2.00159 3.67443 2.52888 2.40358 3.46622 1.46625C4.40356 0.528907 5.67441 0.0016131 7 2.52397e-05H11.515C12.4346 -0.00245203 13.3456 0.177452 14.1953 0.52933C15.0449 0.881208 15.8164 1.39807 16.465 2.05003L19.95 5.53503C20.602 6.18357 21.119 6.955 21.4708 7.80467C21.8227 8.65434 22.0026 9.56537 22 10.485ZM19.341 8.00002C19.1203 7.61594 18.8496 7.26286 18.536 6.95003L15.051 3.46503C14.7377 3.15157 14.3843 2.88089 14 2.66003V7.00003C14 7.26524 14.1054 7.5196 14.2929 7.70713C14.4804 7.89467 14.7348 8.00002 15 8.00002H19.341Z" fill="black"/>
</svg>
