<svg width="22" height="24" viewBox="0 0 22 24" fill="none" xmlns="http://www.w3.org/2000/svg">
<path d="M11 8C10.2089 8 9.43552 8.2346 8.77772 8.67412C8.11993 9.11365 7.60723 9.73836 7.30448 10.4693C7.00173 11.2002 6.92252 12.0044 7.07686 12.7804C7.2312 13.5563 7.61216 14.269 8.17157 14.8284C8.73098 15.3878 9.44372 15.7688 10.2196 15.9231C10.9956 16.0775 11.7998 15.9983 12.5307 15.6955C13.2616 15.3928 13.8864 14.8801 14.3259 14.2223C14.7654 13.5645 15 12.7911 15 12C15 10.9391 14.5786 9.92172 13.8284 9.17157C13.0783 8.42143 12.0609 8 11 8ZM11 14C10.6044 14 10.2178 13.8827 9.88886 13.6629C9.55996 13.4432 9.30362 13.1308 9.15224 12.7654C9.00087 12.3999 8.96126 11.9978 9.03843 11.6098C9.1156 11.2219 9.30608 10.8655 9.58579 10.5858C9.86549 10.3061 10.2219 10.1156 10.6098 10.0384C10.9978 9.96126 11.3999 10.0009 11.7654 10.1522C12.1308 10.3036 12.4432 10.56 12.6629 10.8889C12.8827 11.2178 13 11.6044 13 12C13 12.5304 12.7893 13.0391 12.4142 13.4142C12.0391 13.7893 11.5304 14 11 14Z" fill="black"/>
<path d="M20.2949 13.9L19.8509 13.644C20.0508 12.5564 20.0508 11.4416 19.8509 10.354L20.2949 10.098C20.6363 9.90102 20.9356 9.63871 21.1757 9.32606C21.4158 9.01341 21.5919 8.65654 21.694 8.27582C21.7962 7.8951 21.8223 7.49799 21.771 7.10716C21.7197 6.71633 21.5919 6.33944 21.3949 5.998C21.1979 5.65656 20.9356 5.35727 20.623 5.1172C20.3103 4.87714 19.9534 4.70101 19.5727 4.59886C19.192 4.49672 18.7949 4.47056 18.4041 4.52189C18.0132 4.57321 17.6363 4.70102 17.2949 4.898L16.8499 5.155C16.0094 4.43692 15.0436 3.88025 14.0009 3.513V3C14.0009 2.20435 13.6848 1.44129 13.1222 0.87868C12.5596 0.31607 11.7965 0 11.0009 0C10.2052 0 9.44218 0.31607 8.87957 0.87868C8.31696 1.44129 8.00089 2.20435 8.00089 3V3.513C6.95828 3.88157 5.99274 4.4396 5.15289 5.159L4.70089 4.9C4.01133 4.50218 3.19197 4.39457 2.42308 4.60086C1.65418 4.80715 0.998717 5.31044 0.600893 6C0.203068 6.68956 0.0954647 7.50892 0.301755 8.27782C0.508045 9.04672 1.01133 9.70218 1.70089 10.1L2.14489 10.356C1.945 11.4436 1.945 12.5584 2.14489 13.646L1.70089 13.9C1.01133 14.2978 0.508045 14.9533 0.301755 15.7222C0.0954647 16.4911 0.203068 17.3104 0.600893 18C0.998717 18.6896 1.65418 19.1928 2.42308 19.3991C3.19197 19.6054 4.01133 19.4978 4.70089 19.1L5.14589 18.843C5.98799 19.5624 6.95596 20.1198 8.00089 20.487V21C8.00089 21.7956 8.31696 22.5587 8.87957 23.1213C9.44218 23.6839 10.2052 24 11.0009 24C11.7965 24 12.5596 23.6839 13.1222 23.1213C13.6848 22.5587 14.0009 21.7956 14.0009 21V20.487C15.0435 20.1184 16.009 19.5604 16.8489 18.841L17.2959 19.099C17.9855 19.4968 18.8048 19.6044 19.5737 19.3981C20.3426 19.1918 20.9981 18.6886 21.3959 17.999C21.7937 17.3094 21.9013 16.4901 21.695 15.7212C21.4887 14.9523 20.9855 14.2968 20.2959 13.899L20.2949 13.9ZM17.7469 10.124C18.0855 11.3511 18.0855 12.6469 17.7469 13.874C17.6878 14.0876 17.7012 14.3147 17.7852 14.5198C17.8692 14.7249 18.0189 14.8963 18.2109 15.007L19.2949 15.633C19.4087 15.6987 19.5084 15.7861 19.5884 15.8903C19.6684 15.9945 19.7271 16.1135 19.7612 16.2403C19.7952 16.3672 19.8039 16.4996 19.7868 16.6298C19.7697 16.7601 19.7271 16.8857 19.6614 16.9995C19.5957 17.1133 19.5083 17.213 19.4041 17.293C19.2999 17.373 19.1809 17.4317 19.054 17.4658C18.9272 17.4998 18.7948 17.5085 18.6645 17.4914C18.5343 17.4743 18.4087 17.4317 18.2949 17.366L17.2089 16.738C17.0168 16.6267 16.7931 16.5826 16.5731 16.6124C16.3532 16.6423 16.1494 16.7445 15.9939 16.903C15.1038 17.8117 13.9825 18.46 12.7509 18.778C12.5359 18.8333 12.3455 18.9585 12.2095 19.1339C12.0735 19.3094 11.9998 19.525 11.9999 19.747V21C11.9999 21.2652 11.8945 21.5196 11.707 21.7071C11.5195 21.8946 11.2651 22 10.9999 22C10.7347 22 10.4803 21.8946 10.2928 21.7071C10.1052 21.5196 9.99989 21.2652 9.99989 21V19.748C10 19.526 9.92627 19.3104 9.7903 19.1349C9.65433 18.9595 9.46386 18.8343 9.24889 18.779C8.01724 18.4597 6.89622 17.81 6.00689 16.9C5.85142 16.7415 5.64763 16.6393 5.42765 16.6094C5.20767 16.5796 4.984 16.6237 4.79189 16.735L3.70789 17.362C3.59412 17.4287 3.46828 17.4722 3.33762 17.4901C3.20695 17.508 3.07405 17.4998 2.94655 17.4661C2.81905 17.4324 2.69947 17.3738 2.59471 17.2937C2.48995 17.2136 2.40207 17.1135 2.33613 16.9993C2.27019 16.8851 2.22749 16.759 2.21049 16.6282C2.19349 16.4974 2.20253 16.3646 2.23708 16.2373C2.27164 16.11 2.33102 15.9909 2.41183 15.8866C2.49263 15.7824 2.59325 15.6952 2.70789 15.63L3.79189 15C3.98384 14.8893 4.13357 14.7179 4.21755 14.5128C4.30154 14.3077 4.31502 14.0806 4.25589 13.867C3.91725 12.6399 3.91725 11.3441 4.25589 10.117C4.31299 9.90445 4.29837 9.67899 4.21429 9.47559C4.13022 9.2722 3.9814 9.10221 3.79089 8.992L2.70689 8.366C2.47708 8.23339 2.30936 8.01492 2.24063 7.75865C2.1719 7.50239 2.20778 7.22931 2.34039 6.9995C2.473 6.76969 2.69147 6.60197 2.94774 6.53324C3.20401 6.46451 3.47708 6.50039 3.70689 6.633L4.79289 7.261C4.98447 7.37251 5.20767 7.41721 5.42742 7.38807C5.64717 7.35893 5.851 7.25759 6.00689 7.1C6.89698 6.19134 8.01832 5.54302 9.24989 5.225C9.46552 5.16956 9.65649 5.04375 9.79253 4.8675C9.92856 4.69125 10.0019 4.47464 10.0009 4.252V3C10.0009 2.73478 10.1062 2.48043 10.2938 2.29289C10.4813 2.10536 10.7357 2 11.0009 2C11.2661 2 11.5205 2.10536 11.708 2.29289C11.8955 2.48043 12.0009 2.73478 12.0009 3V4.252C12.0008 4.47396 12.0745 4.68964 12.2105 4.86508C12.3465 5.04052 12.5369 5.16573 12.7519 5.221C13.9839 5.54015 15.1053 6.18988 15.9949 7.1C16.1504 7.25847 16.3542 7.36069 16.5741 7.39057C16.7941 7.42044 17.0178 7.37626 17.2099 7.265L18.2939 6.638C18.4077 6.5713 18.5335 6.52777 18.6642 6.5099C18.7948 6.49204 18.9277 6.50019 19.0552 6.5339C19.1827 6.56761 19.3023 6.6262 19.4071 6.70631C19.5118 6.78642 19.5997 6.88646 19.6657 7.00067C19.7316 7.11488 19.7743 7.24101 19.7913 7.37179C19.8083 7.50257 19.7993 7.63542 19.7647 7.76269C19.7301 7.88997 19.6708 8.00915 19.59 8.11337C19.5092 8.2176 19.4085 8.30482 19.2939 8.37L18.2099 9C18.0189 9.11071 17.87 9.28148 17.7862 9.48569C17.7025 9.68991 17.6887 9.9161 17.7469 10.129V10.124Z" fill="black"/>
</svg>
