<svg width="22" height="22" viewBox="0 0 22 22" fill="none" xmlns="http://www.w3.org/2000/svg">
<path d="M3.559 0H6.229C7.17291 0 8.07815 0.374965 8.74559 1.04241C9.41304 1.70985 9.788 2.61509 9.788 3.559V6.229C9.788 7.17291 9.41304 8.07815 8.74559 8.74559C8.07815 9.41304 7.17291 9.788 6.229 9.788H3.559C2.61509 9.788 1.70985 9.41304 1.04241 8.74559C0.374965 8.07815 0 7.17291 0 6.229V3.559C0 2.61509 0.374965 1.70985 1.04241 1.04241C1.70985 0.374965 2.61509 0 3.559 0Z" fill="#0C77FF"/>
<path d="M15.1254 0H17.7954C18.7393 0 19.6445 0.374965 20.312 1.04241C20.9794 1.70985 21.3544 2.61509 21.3544 3.559V6.229C21.3544 7.17291 20.9794 8.07815 20.312 8.74559C19.6445 9.41304 18.7393 9.788 17.7954 9.788H15.1254C14.1815 9.788 13.2762 9.41304 12.6088 8.74559C11.9414 8.07815 11.5664 7.17291 11.5664 6.229V3.559C11.5664 2.61509 11.9414 1.70985 12.6088 1.04241C13.2762 0.374965 14.1815 0 15.1254 0Z" fill="#0C77FF"/>
<path d="M3.559 11.568H6.229C7.17291 11.568 8.07815 11.943 8.74559 12.6104C9.41304 13.2778 9.788 14.1831 9.788 15.127V17.797C9.788 18.7409 9.41304 19.6461 8.74559 20.3136C8.07815 20.981 7.17291 21.356 6.229 21.356H3.559C3.09163 21.356 2.62883 21.264 2.19703 21.0851C1.76523 20.9062 1.37289 20.6441 1.04241 20.3136C0.711923 19.9831 0.449769 19.5908 0.270913 19.159C0.0920562 18.7272 0 18.2644 0 17.797L0 15.127C0 14.1831 0.374965 13.2778 1.04241 12.6104C1.70985 11.943 2.61509 11.568 3.559 11.568Z" fill="#0C77FF"/>
<path d="M15.1254 11.568H17.7954C18.7393 11.568 19.6445 11.943 20.312 12.6104C20.9794 13.2778 21.3544 14.1831 21.3544 15.127V17.797C21.3544 18.7409 20.9794 19.6461 20.312 20.3136C19.6445 20.981 18.7393 21.356 17.7954 21.356H15.1254C14.1815 21.356 13.2762 20.981 12.6088 20.3136C11.9414 19.6461 11.5664 18.7409 11.5664 17.797V15.127C11.5664 14.1831 11.9414 13.2778 12.6088 12.6104C13.2762 11.943 14.1815 11.568 15.1254 11.568Z" fill="#0C77FF"/>
</svg>
