<svg width="20" height="24" viewBox="0 0 20 24" fill="none" xmlns="http://www.w3.org/2000/svg">
<path d="M12 7V0.46C12.9251 0.809335 13.7653 1.35131 14.465 2.05L17.949 5.536C18.6485 6.23488 19.1909 7.07489 19.54 8H13C12.7348 8 12.4804 7.89464 12.2929 7.70711C12.1054 7.51957 12 7.26522 12 7ZM19.976 10H13C12.2044 10 11.4413 9.68393 10.8787 9.12132C10.3161 8.55871 10 7.79565 10 7V0.024C9.839 0.013 9.678 0 9.515 0H5C3.67441 0.00158786 2.40356 0.528882 1.46622 1.46622C0.528882 2.40356 0.00158786 3.67441 0 5V14H3.965L5.665 11.445C5.76123 11.2976 5.89516 11.1786 6.05288 11.1003C6.2106 11.0221 6.38638 10.9874 6.562 11C6.73696 11.0108 6.90601 11.0674 7.05221 11.1641C7.19841 11.2608 7.31663 11.3942 7.395 11.551L9.624 16.01L10.668 14.444C10.7595 14.3073 10.8832 14.1952 11.0284 14.1178C11.1735 14.0403 11.3355 13.9999 11.5 14H16C16.2652 14 16.5196 14.1054 16.7071 14.2929C16.8946 14.4804 17 14.7348 17 15C17 15.2652 16.8946 15.5196 16.7071 15.7071C16.5196 15.8946 16.2652 16 16 16H12.035L10.335 18.555C10.2434 18.6923 10.1192 18.8049 9.97346 18.8825C9.82776 18.9602 9.6651 19.0005 9.5 19C9.479 19 9.458 19 9.438 19C9.26304 18.9892 9.09399 18.9326 8.94779 18.8359C8.80159 18.7392 8.68337 18.6058 8.605 18.449L6.376 13.989L5.332 15.555C5.24065 15.6919 5.11692 15.8042 4.97178 15.8818C4.82665 15.9594 4.66459 16 4.5 16H0V19C0.00158786 20.3256 0.528882 21.5964 1.46622 22.5338C2.40356 23.4711 3.67441 23.9984 5 24H15C16.3256 23.9984 17.5964 23.4711 18.5338 22.5338C19.4711 21.5964 19.9984 20.3256 20 19V10.485C20 10.322 19.987 10.161 19.976 10Z" fill="#0C77FF"/>
</svg>
