<svg width="22" height="24" viewBox="0 0 22 24" fill="none" xmlns="http://www.w3.org/2000/svg">
<path d="M0.809924 18C1.00675 18.3416 1.26897 18.6411 1.5816 18.8812C1.89424 19.1214 2.25115 19.2976 2.63193 19.3998C3.01271 19.502 3.40989 19.5281 3.80077 19.4766C4.19164 19.4252 4.56854 19.2972 4.90992 19.1L5.35492 18.843C6.19493 19.5617 7.16046 20.119 8.20292 20.487V21C8.20292 21.7956 8.519 22.5587 9.0816 23.1213C9.64421 23.6839 10.4073 24 11.2029 24C11.9986 24 12.7616 23.6839 13.3242 23.1213C13.8869 22.5587 14.2029 21.7956 14.2029 21V20.487C15.2455 20.1185 16.2111 19.5604 17.0509 18.841L17.4979 19.099C18.1875 19.4968 19.0068 19.6044 19.7757 19.3981C20.5446 19.1918 21.2001 18.6886 21.5979 17.999C21.9957 17.3094 22.1033 16.4901 21.8971 15.7212C21.6908 14.9523 21.1875 14.2968 20.4979 13.899L20.0539 13.643C20.2538 12.5554 20.2538 11.4406 20.0539 10.353L20.4979 10.097C20.8394 9.90002 21.1387 9.63771 21.3787 9.32506C21.6188 9.01241 21.7949 8.65554 21.8971 8.27482C21.9992 7.8941 22.0254 7.49699 21.974 7.10616C21.9227 6.71533 21.7949 6.33844 21.5979 5.997C21.4009 5.65556 21.1386 5.35627 20.826 5.1162C20.5133 4.87614 20.1565 4.70001 19.7757 4.59786C19.395 4.49572 18.9979 4.46956 18.6071 4.52089C18.2162 4.57221 17.8394 4.70002 17.4979 4.897L17.0529 5.154C16.2121 4.43617 15.2459 3.87983 14.2029 3.513V3C14.2029 2.20435 13.8869 1.44129 13.3242 0.87868C12.7616 0.31607 11.9986 0 11.2029 0C10.4073 0 9.64421 0.31607 9.0816 0.87868C8.519 1.44129 8.20292 2.20435 8.20292 3V3.513C7.1603 3.88155 6.19476 4.43958 5.35492 5.159L4.90792 4.9C4.21836 4.50218 3.39901 4.39457 2.63011 4.60086C1.86121 4.80715 1.20575 5.31044 0.807923 6C0.410099 6.68956 0.302496 7.50892 0.508786 8.27782C0.715076 9.04672 1.21836 9.70218 1.90792 10.1L2.35192 10.356C2.15203 11.4436 2.15203 12.5584 2.35192 13.646L1.90792 13.902C1.22012 14.301 0.718406 14.9562 0.512618 15.7242C0.30683 16.4923 0.413734 17.3106 0.809924 18ZM11.2029 8C11.994 8 12.7674 8.2346 13.4252 8.67412C14.083 9.11365 14.5957 9.73836 14.8984 10.4693C15.2012 11.2002 15.2804 12.0044 15.1261 12.7804C14.9717 13.5563 14.5908 14.269 14.0314 14.8284C13.4719 15.3878 12.7592 15.7688 11.9833 15.9231C11.2074 16.0775 10.4031 15.9983 9.67219 15.6955C8.94128 15.3928 8.31657 14.8801 7.87705 14.2223C7.43752 13.5645 7.20292 12.7911 7.20292 12C7.20292 10.9391 7.62435 9.92172 8.3745 9.17157C9.12464 8.42143 10.1421 8 11.2029 8Z" fill="#0C77FF"/>
</svg>
